<?xml version="1.0" standalone="no"?><!DOCTYPE svg PUBLIC "-//W3C//DTD SVG 1.1//EN" "http://www.w3.org/Graphics/SVG/1.1/DTD/svg11.dtd"><svg class="icon" width="200px" height="200.00px" viewBox="0 0 1024 1024" version="1.1" xmlns="http://www.w3.org/2000/svg"><path d="M384 170.688h42.688v42.688H384zM426.688 170.688h42.688v42.688h-42.688zM554.688 170.688h42.688v42.688h-42.688z" fill="#BD7B3D" /><path d="M597.312 170.688H640v42.624h-42.688zM298.688 128h42.688v42.688h-42.688z" fill="#BD7B3D" /><path d="M341.312 128H384v42.688h-42.688zM469.312 128H512v42.688h-42.688zM512 128h42.688v42.688H512zM640 128h42.688v42.688H640zM682.688 128h42.688v42.688h-42.688zM298.688 170.688h42.688v42.688h-42.688z" fill="#BD7B3D" /><path d="M341.312 170.688H384v42.688h-42.688zM469.312 170.688H512v42.688h-42.688zM256 213.312h42.688V256H256z" fill="#BD7B3D" /><path d="M298.688 213.312h42.688V256h-42.688z" fill="#BD7B3D" /><path d="M341.312 213.312H384V256h-42.688zM384 213.312h42.688V256H384zM426.688 213.312h42.688V256h-42.688z" fill="#BD7B3D" /><path d="M469.312 213.312H512V256h-42.688zM384 256h42.688v42.688H384zM426.688 256h42.688v42.688h-42.688zM512 170.688h42.688v42.688H512z" fill="#BD7B3D" /><path d="M512 213.312h42.688V256H512zM554.688 213.312h42.688V256h-42.688zM554.688 256h42.688v42.688h-42.688z" fill="#BD7B3D" /><path d="M597.312 213.312H640V256h-42.688zM597.312 256H640v42.688h-42.688zM640 213.312h42.688V256H640zM682.688 213.312h42.624V256h-42.624zM640 170.688h42.688v42.624H640zM682.688 170.688h42.688v42.624h-42.688zM725.312 213.312H768V256h-42.688z" fill="#BD7B3D" /><path d="M554.688 384h42.688v42.688h-42.688zM554.688 426.688h42.688v42.688h-42.688z" fill="#F7AF00" /><path d="M597.312 384H640v42.688h-42.688zM597.312 426.688H640v42.688h-42.688z" fill="#F7AF00" /><path d="M597.312 469.312H640V512h-42.688zM597.312 512H640v42.688h-42.688zM597.312 554.688H640v42.688h-42.688z" fill="#F7AF00" /><path d="M597.312 597.312H640V640h-42.688zM597.312 640H640v42.688h-42.688zM554.688 341.312h42.688V384h-42.688z" fill="#F7AF00" /><path d="M597.312 341.312H640V384h-42.688zM640 469.312h42.688V512H640zM640 512h42.688v42.688H640zM640 554.688h42.688v42.688H640z" fill="#F7AF00" /><path d="M640 597.312h42.688V640H640zM640 640h42.688v42.688H640zM384 384h42.688v42.688H384zM426.688 384h42.688v42.688h-42.688zM384 426.688h42.688v42.688H384zM426.688 426.688h42.688v42.688h-42.688z" fill="#F7AF00" /><path d="M384 469.312h42.688V512H384zM384 512h42.688v42.688H384zM384 554.688h42.688v42.688H384zM341.312 640H384v42.688h-42.688zM384 640h42.688v42.688H384zM384 341.312h42.688V384H384zM426.688 341.312h42.688V384h-42.688zM341.312 469.312H384V512h-42.688zM341.312 512H384v42.688h-42.688zM341.312 554.688H384v42.688h-42.688z" fill="#F7AF00" /><path d="M341.312 597.312H384V640h-42.688zM384 597.312h42.688V640H384z" fill="#F7AF00" /><path d="M256 170.688h42.688v42.688H256z" fill="#BD7B3D" /><path d="M256 298.688h42.688v42.688H256z" fill="#FBC854" /><path d="M298.688 298.688h42.688v42.688h-42.688z" fill="#FFFFFF" /><path d="M341.312 298.688H384v42.688h-42.688zM469.312 298.688H512v42.688h-42.688zM512 298.688h42.688v42.688H512zM682.688 298.688h42.688v42.688h-42.688zM682.688 384h42.688v42.688h-42.688zM682.688 426.688h42.688v42.688h-42.688z" fill="#FBC854" /><path d="M682.688 469.312h42.688V512h-42.688zM725.312 384H768v42.688h-42.688z" fill="#FBC854" /><path d="M725.312 426.688H768v42.688h-42.688z" fill="#FBC854" /><path d="M725.312 469.312H768V512h-42.688zM682.688 512h42.688v42.688h-42.688z" fill="#FBC854" /><path d="M725.312 512H768v42.688h-42.688zM768 469.312h42.688V512H768zM768 512h42.688v42.688H768zM682.688 554.688h42.688v42.688h-42.688z" fill="#FBC854" /><path d="M682.688 597.312h42.688V640h-42.688z" fill="#FBC854" /><path d="M725.312 554.688H768v42.688h-42.688z" fill="#FBC854" /><path d="M725.312 597.312H768V640h-42.688zM682.688 640h42.688v42.688h-42.688z" fill="#FBC854" /><path d="M725.312 640H768v42.688h-42.688zM768 554.688h42.688v42.688H768z" fill="#FBC854" /><path d="M768 597.312h42.688V640H768zM768 640h42.688v42.688H768zM682.688 682.688h42.688v42.688h-42.688z" fill="#FBC854" /><path d="M725.312 682.688H768v42.688h-42.688zM768 682.688h42.688v42.688H768zM810.688 640h42.688v42.688h-42.688zM810.688 682.688h42.688v42.688h-42.688zM213.312 384H256v42.688h-42.688z" fill="#FBC854" /><path d="M256 384h42.688v42.688H256z" fill="#FFFFFF" /><path d="M298.688 384h42.688v42.688h-42.688z" fill="#FBC854" /><path d="M341.312 384H384v42.688h-42.688zM469.312 384H512v42.688h-42.688zM213.312 426.688H256v42.688h-42.688z" fill="#FBC854" /><path d="M256 426.688h42.688v42.688H256z" fill="#FFFFFF" /><path d="M298.688 426.688h42.688v42.688h-42.688z" fill="#FBC854" /><path d="M341.312 426.688H384v42.688h-42.688zM469.312 426.688H512v42.688h-42.688z" fill="#FBC854" /><path d="M213.312 469.312H256V512h-42.688z" fill="#FFFFFF" /><path d="M298.688 469.312h42.688V512h-42.688zM426.688 469.312h42.688V512h-42.688zM512 384h42.688v42.688H512zM512 426.688h42.688v42.688H512z" fill="#FBC854" /><path d="M512 469.312h42.688V512H512z" fill="#FBC854" /><path d="M213.312 512H256v42.688h-42.688z" fill="#FFFFFF" /><path d="M298.688 512h42.688v42.688h-42.688zM426.688 512h42.688v42.688h-42.688zM554.688 512h42.688v42.688h-42.688z" fill="#FBC854" /><path d="M213.312 554.688H256v42.688h-42.688z" fill="#FFFFFF" /><path d="M298.688 554.688h42.688v42.688h-42.688zM426.688 554.688h42.688v42.688h-42.688zM213.312 597.312H256V640h-42.688z" fill="#FBC854" /><path d="M298.688 597.312h42.688V640h-42.688zM426.688 597.312h42.688V640h-42.688zM512 554.688h42.688v42.688H512z" fill="#FBC854" /><path d="M512 597.312h42.688V640H512zM128 640h42.688v42.688H128zM170.688 640h42.688v42.688h-42.688z" fill="#FBC854" /><path d="M213.312 640H256v42.688h-42.688zM256 640h42.688v42.688H256zM298.688 640h42.688v42.688h-42.688zM426.688 640h42.688v42.688h-42.688z" fill="#FBC854" /><path d="M469.312 640H512v42.688h-42.688zM512 640h42.688v42.688H512zM554.688 640h42.688v42.688h-42.688zM128 682.688h42.688v42.688H128zM170.688 682.688h42.688v42.688h-42.688z" fill="#FBC854" /><path d="M213.312 682.688H256v42.688h-42.688zM256 682.688h42.688v42.688H256zM298.688 682.688h42.688v42.688h-42.688z" fill="#FBC854" /><path d="M341.312 682.688H384v42.688h-42.688zM384 682.688h42.688v42.688H384zM426.688 682.688h42.688v42.688h-42.688z" fill="#FBC854" /><path d="M469.312 682.688H512v42.688h-42.688zM512 682.688h42.688v42.688H512zM554.688 682.688h42.688v42.688h-42.688z" fill="#FBC854" /><path d="M597.312 682.688H640v42.688h-42.688zM213.312 341.312H256V384h-42.688zM256 341.312h42.688V384H256zM298.688 341.312h42.688V384h-42.688z" fill="#FBC854" /><path d="M341.312 341.312H384V384h-42.688zM469.312 341.312H512V384h-42.688zM512 341.312h42.688V384H512zM640 298.688h42.688v42.688H640z" fill="#FBC854" /><path d="M640 341.312h42.688V384H640zM640 384h42.688v42.688H640zM640 426.688h42.688v42.688H640zM682.688 341.312h42.688V384h-42.688zM256 256h42.688v42.688H256zM298.688 256h42.688v42.688h-42.688z" fill="#FBC854" /><path d="M341.312 256H384v42.688h-42.688zM469.312 256H512v42.688h-42.688zM384 298.688h42.688v42.688H384zM426.688 298.688h42.688v42.688h-42.688zM512 256h42.688v42.688H512zM554.688 298.688h42.688v42.688h-42.688z" fill="#FBC854" /><path d="M597.312 298.688H640v42.688h-42.688zM640 256h42.688v42.688H640z" fill="#FBC854" /><path d="M725.312 170.688H768v42.624h-42.688z" fill="#BD7B3D" /><path d="M682.688 256h42.688v42.688h-42.688zM725.312 341.312H768V384h-42.688zM640 682.688h42.688v42.688H640zM170.688 469.312h42.688V512h-42.688zM256 469.312h42.688V512H256zM469.312 469.312H512V512h-42.688zM170.688 512h42.688v42.688h-42.688zM256 512h42.688v42.688H256zM469.312 512H512v42.688h-42.688zM512 512h42.688v42.688H512zM554.688 469.312h42.688V512h-42.688zM170.688 554.688h42.688v42.688h-42.688zM256 554.688h42.688v42.688H256zM469.312 554.688H512v42.688h-42.688z" fill="#FBC854" /><path d="M170.688 597.312h42.688V640h-42.688zM256 597.312h42.688V640H256zM469.312 597.312H512V640h-42.688zM554.688 554.688h42.688v42.688h-42.688z" fill="#FBC854" /><path d="M554.688 597.312h42.688V640h-42.688z" fill="#FBC854" /><path d="M725.312 298.688H768v42.688h-42.688zM768 384h42.688v42.688H768zM768 426.688h42.688v42.688H768zM682.688 725.312h42.688V768h-42.688z" fill="#F6A600" /><path d="M725.312 725.312H768V768h-42.688zM768 725.312h42.688V768H768zM810.688 469.312h42.688V512h-42.688zM810.688 512h42.688v42.688h-42.688zM810.688 554.688h42.688v42.688h-42.688z" fill="#F6A600" /><path d="M810.688 597.312h42.688V640h-42.688zM810.688 725.312h42.688V768h-42.688zM853.312 640H896v42.688h-42.688z" fill="#F6A600" /><path d="M853.312 682.688H896v42.688h-42.688z" fill="#F6A600" /><path d="M853.312 725.312H896V768h-42.688zM128 725.312h42.688V768H128zM170.688 725.312h42.688V768h-42.688zM341.312 725.312H384V768h-42.688zM384 725.312h42.688V768H384zM426.688 725.312h42.688V768h-42.688z" fill="#F6A600" /><path d="M469.312 725.312H512V768h-42.688zM512 725.312h42.688V768H512zM554.688 725.312h42.688V768h-42.688z" fill="#F6A600" /><path d="M597.312 725.312H640V768h-42.688zM725.312 256H768v42.688h-42.688zM768 341.312h42.688V384H768zM640 725.312h42.688V768H640zM213.312 725.312H256V768h-42.688zM256 725.312h42.688V768H256zM298.688 725.312h42.688V768h-42.688z" fill="#F6A600" /><path d="M768 810.688h42.688v42.688H768zM810.688 810.688h42.688v42.688h-42.688zM426.688 810.688h42.688v42.688h-42.688z" fill="#FFFFFF" /><path d="M469.312 810.688H512v42.688h-42.688zM170.688 810.688h42.688v42.688h-42.688z" fill="#FFFFFF" /><path d="M213.312 810.688H256v42.688h-42.688zM256 810.688h42.688v42.688H256zM298.688 810.688h42.688v42.688h-42.688z" fill="#FFFFFF" /><path d="M341.312 810.688H384v42.688h-42.688zM554.688 810.688h42.688v42.688h-42.688z" fill="#FFFFFF" /><path d="M597.312 810.688H640v42.688h-42.688zM128 853.312h42.688V896H128zM170.688 853.312h42.688V896h-42.688z" fill="#FFFFFF" /><path d="M213.312 853.312H256V896h-42.688zM256 853.312h42.688V896H256zM298.688 853.312h42.688V896h-42.688z" fill="#FFFFFF" /><path d="M341.312 853.312H384V896h-42.688zM384 853.312h42.688V896H384zM512 853.312h42.688V896H512zM554.688 853.312h42.688V896h-42.688z" fill="#FFFFFF" /><path d="M597.312 853.312H640V896h-42.688zM682.688 853.312h42.688V896h-42.688z" fill="#FFFFFF" /><path d="M682.688 810.688h42.688v42.688h-42.688zM896 810.688h42.688v42.688H896z" fill="#FFFFFF" /><path d="M725.312 853.312H768V896h-42.688zM853.312 853.312H896V896h-42.688zM512 810.688h42.688v42.688H512z" fill="#FFFFFF" /><path d="M725.312 810.688H768v42.688h-42.688zM853.312 810.688H896v42.688h-42.688zM426.688 853.312h42.688V896h-42.688z" fill="#FFFFFF" /><path d="M469.312 853.312H512V896h-42.688zM768 853.312h42.688V896H768zM810.688 853.312h42.688V896h-42.688zM640 810.688h42.688v42.688H640z" fill="#FFFFFF" /><path d="M640 853.312h42.688V896H640zM85.312 810.688H128v42.688h-42.688zM128 810.688h42.688v42.688H128zM384 810.688h42.688v42.688H384z" fill="#FFFFFF" /><path d="M725.312 768H768v42.688h-42.688zM768 768h42.688v42.688H768zM810.688 768h42.688v42.688h-42.688z"  /><path d="M853.312 768H896v42.688h-42.688zM42.688 768h42.688v42.688H42.688z"  /><path d="M85.312 768H128v42.688h-42.688zM128 768h42.688v42.688H128zM384 768h42.688v42.688H384zM426.688 768h42.688v42.688h-42.688z"  /><path d="M469.312 768H512v42.688h-42.688zM512 768h42.688v42.688H512zM42.688 810.688h42.688v42.688H42.688zM213.312 768H256v42.688h-42.688zM256 768h42.688v42.688H256zM298.688 768h42.688v42.688h-42.688zM597.312 768H640v42.688h-42.688z"  /><path d="M85.312 853.312H128V896h-42.688zM128 896h42.688v42.688H128zM170.688 896h42.688v42.688h-42.688z"  /><path d="M213.312 896H256v42.688h-42.688zM256 896h42.688v42.688H256zM298.688 896h42.688v42.688h-42.688z"  /><path d="M341.312 896H384v42.688h-42.688zM384 896h42.688v42.688H384zM426.688 896h42.688v42.688h-42.688z"  /><path d="M469.312 896H512v42.688h-42.688zM512 896h42.688v42.688H512zM554.688 896h42.688v42.688h-42.688z"  /><path d="M597.312 896H640v42.688h-42.688zM682.688 896h42.688v42.688h-42.688zM938.688 768h42.688v42.688h-42.688zM938.688 810.688h42.688v42.688h-42.688z"  /><path d="M725.312 896H768v42.688h-42.688zM768 896h42.688v42.688H768zM810.688 896h42.688v42.688h-42.688zM896 853.312h42.688V896H896z"  /><path d="M853.312 896H896v42.688h-42.688zM554.688 768h42.688v42.688h-42.688zM682.688 768h42.688v42.688h-42.688zM896 768h42.688v42.688H896zM0 768h42.688v42.688H0zM640 768h42.688v42.688H640zM981.312 768H1024v42.688h-42.688zM640 896h42.688v42.688H640zM170.688 768h42.688v42.688h-42.688zM341.312 768H384v42.688h-42.688zM213.312 170.688H256v42.688h-42.688z"  /><path d="M213.312 213.312H256V256h-42.688zM213.312 256H256v42.688h-42.688zM213.312 298.688H256v42.688h-42.688zM298.688 85.312h42.688V128h-42.688z"  /><path d="M341.312 85.312H384V128h-42.688zM469.312 85.312H512V128h-42.688zM512 85.312h42.688V128H512zM640 85.312h42.688V128H640zM682.688 85.312h42.688V128h-42.688zM768 213.312h42.688V256H768zM768 256h42.688v42.688H768zM768 298.688h42.688v42.688H768zM810.688 384h42.688v42.688h-42.688zM810.688 426.688h42.688v42.688h-42.688z"  /><path d="M853.312 469.312H896V512h-42.688zM853.312 512H896v42.688h-42.688zM853.312 554.688H896v42.688h-42.688z"  /><path d="M853.312 597.312H896V640h-42.688zM896 640h42.688v42.688H896zM896 682.688h42.688v42.688H896z"  /><path d="M896 725.312h42.688V768H896zM170.688 384h42.688v42.688h-42.688zM170.688 426.688h42.688v42.688h-42.688zM128 554.688h42.688v42.688H128z"  /><path d="M128 597.312h42.688V640H128zM85.312 640H128v42.688h-42.688zM85.312 682.688H128v42.688h-42.688z"  /><path d="M85.312 725.312H128V768h-42.688zM256 128h42.688v42.688H256zM384 128h42.688v42.688H384zM426.688 128h42.688v42.688h-42.688zM170.688 341.312h42.688V384h-42.688zM554.688 128h42.688v42.688h-42.688z"  /><path d="M597.312 128H640v42.688h-42.688zM725.312 128H768v42.688h-42.688zM768 170.688h42.688v42.688H768zM810.688 341.312h42.688V384h-42.688zM128 469.312h42.688V512H128zM128 512h42.688v42.688H128z"  /></svg>