<?xml version="1.0" encoding="UTF-8" standalone="no"?>
<!DOCTYPE svg PUBLIC "-//W3C//DTD SVG 1.1//EN" "http://www.w3.org/Graphics/SVG/1.1/DTD/svg11.dtd">
<svg xmlns="http://www.w3.org/2000/svg" version="1.1" viewBox="0.00 0.00 598.00 417.00">
<g stroke-width="2.00" fill="none" stroke-linecap="butt">
<path stroke="#867801" vector-effect="non-scaling-stroke" d="
  M 513.00 121.33
  Q 509.78 123.74 506.12 121.33
  Q 501.71 118.43 498.11 118.40
  Q 490.44 118.34 484.11 118.37
  Q 483.98 118.37 483.87 118.32
  Q 483.73 118.27 483.72 118.10
  Q 483.71 117.90 483.51 117.89
  Q 480.40 117.77 477.00 118.20
  Q 472.84 118.72 463.82 118.30
  C 450.91 117.69 437.88 117.94 425.00 117.61
  Q 421.07 117.51 417.53 117.61
  C 405.21 117.93 390.64 117.24 377.00 117.29
  Q 348.55 117.40 319.75 117.53
  Q 309.48 117.58 299.79 117.22
  Q 281.31 116.54 252.89 116.50
  C 250.63 116.49 247.96 115.91 245.69 116.38
  Q 241.14 117.31 236.96 116.45
  Q 236.16 116.28 235.44 116.65
  Q 234.97 116.89 234.44 116.88
  Q 228.28 116.85 222.00 116.84
  C 220.98 116.84 220.44 116.37 219.59 115.98
  Q 219.08 115.75 218.60 116.05
  Q 217.43 116.79 216.49 116.75
  Q 193.29 115.83 170.13 116.33
  C 163.70 116.47 157.44 117.43 151.02 117.30
  Q 124.21 116.75 97.60 116.36
  Q 96.54 116.34 95.88 115.56
  Q 95.72 115.37 95.54 115.55
  Q 94.64 116.46 93.31 116.33
  Q 85.08 115.54 76.32 115.61
  Q 72.76 115.64 67.74 115.14
  Q 63.54 114.72 59.18 114.78"
/>
<path stroke="#680e0e" vector-effect="non-scaling-stroke" d="
  M 516.84 125.94
  Q 514.42 125.82 512.10 125.50
  Q 509.50 125.14 507.37 125.07
  Q 503.30 124.93 499.26 124.45
  Q 494.23 123.85 491.07 123.98
  Q 484.79 124.22 478.54 123.98
  Q 474.72 123.84 471.00 123.40
  C 466.09 122.82 461.20 123.16 456.15 122.84
  Q 445.03 122.14 433.30 122.01
  C 419.94 121.87 404.68 120.53 389.95 121.13
  C 379.13 121.57 366.59 120.03 356.24 120.21
  Q 337.67 120.53 320.47 120.40
  C 309.37 120.31 297.18 119.08 285.63 119.29
  Q 275.60 119.47 268.29 119.43
  C 248.78 119.32 229.00 119.82 209.38 119.26
  Q 194.77 118.84 180.77 119.08
  Q 169.55 119.28 160.59 119.16
  C 143.91 118.95 126.62 118.23 109.90 118.75
  C 104.29 118.93 98.90 118.54 93.28 118.32
  C 88.40 118.13 83.09 119.43 78.25 119.10
  Q 66.50 118.32 58.06 119.58"
/>
<path stroke="#d0b401" vector-effect="non-scaling-stroke" d="
  M 289.91 32.36
  L 287.67 32.38
  A 0.21 0.21 0.0 0 0 287.46 32.59
  L 287.46 32.69
  A 3.11 1.24 89.7 0 0 288.72 35.79
  L 288.90 35.79
  A 3.11 1.24 89.7 0 0 290.12 32.67
  L 290.12 32.57
  A 0.21 0.21 0.0 0 0 289.91 32.36"
/>
<path stroke="#d0b401" vector-effect="non-scaling-stroke" d="
  M 378.23 40.44
  Q 378.67 42.48 378.14 44.44
  Q 378.03 44.86 377.60 44.93
  Q 376.27 45.12 375.57 46.25
  Q 375.09 47.01 375.91 46.64
  Q 380.58 44.54 379.10 39.94
  A 1.78 1.77 -8.7 0 1 380.80 37.63
  L 382.16 37.64
  Q 382.76 37.65 382.92 37.07
  Q 383.35 35.54 381.23 34.55
  A 2.94 2.93 -49.7 0 0 378.36 34.79
  C 377.13 35.62 375.95 36.65 375.27 38.02
  Q 374.60 39.37 373.89 40.73
  Q 373.00 42.43 373.96 44.86
  Q 374.18 45.42 374.73 45.18
  L 377.22 44.11
  A 1.17 1.16 -3.9 0 0 377.89 43.35
  Q 378.27 42.00 378.12 40.46
  Q 378.03 39.56 378.23 40.44"
/>
<path stroke="#d0b401" vector-effect="non-scaling-stroke" d="
  M 433.69 46.02
  Q 432.93 44.48 431.08 44.31
  Q 430.88 44.29 430.82 44.48
  L 430.75 44.74
  Q 430.72 44.82 430.80 44.84
  Q 433.72 45.61 434.14 48.42
  Q 434.26 49.18 434.54 48.47
  Q 434.95 47.42 434.14 46.65
  Q 433.86 46.38 433.69 46.02"
/>
<path stroke="#d0b401" vector-effect="non-scaling-stroke" d="
  M 391.49 45.66
  L 392.38 51.80
  A 0.11 0.11 0.0 0 0 392.51 51.89
  L 392.53 51.89
  A 3.12 2.34 81.7 0 0 394.40 48.46
  L 394.37 48.28
  A 3.12 2.34 81.7 0 0 391.61 45.53
  L 391.58 45.54
  A 0.11 0.11 0.0 0 0 391.49 45.66"
/>
<path stroke="#d0b401" vector-effect="non-scaling-stroke" d="
  M 320.94 53.66
  Q 320.08 54.51 319.06 54.65
  Q 318.57 54.72 318.16 54.46
  Q 315.87 53.07 314.95 50.66
  Q 314.78 50.23 314.38 50.00
  Q 313.75 49.64 313.76 48.89
  A 1.41 1.40 80.2 0 0 311.88 47.56
  C 309.20 48.54 307.13 48.19 306.97 51.91
  C 306.89 53.88 305.13 55.26 303.21 54.94
  Q 300.89 54.55 298.94 56.19
  C 295.45 59.13 289.36 51.39 287.87 48.68
  Q 287.54 48.07 287.04 47.56
  Q 286.03 46.55 286.24 47.96
  Q 286.65 50.81 288.20 53.27
  Q 292.29 59.75 299.45 57.68
  Q 300.66 57.33 301.95 57.25
  Q 303.49 57.15 304.87 56.88
  A 3.15 3.14 10.8 0 0 306.89 55.51
  C 308.30 53.34 308.99 49.72 312.52 50.33
  Q 313.02 50.42 313.24 50.88
  Q 314.65 53.98 317.02 56.27
  Q 317.39 56.63 317.90 56.66
  Q 321.36 56.91 323.48 54.30
  Q 325.75 51.47 327.35 48.61
  Q 328.40 46.73 326.36 47.42
  Q 323.81 48.29 322.19 51.90
  Q 321.76 52.87 320.94 53.66"
/>
<path stroke="#d0b401" vector-effect="non-scaling-stroke" d="
  M 494.56 68.60
  A 0.68 0.68 0.0 0 0 494.04 68.64
  L 493.25 69.02
  A 0.68 0.68 0.0 0 0 492.97 69.98
  L 494.10 71.88
  A 0.68 0.68 0.0 0 0 495.29 71.85
  L 496.25 70.01
  A 0.68 0.68 0.0 0 0 495.86 69.05
  L 494.56 68.60"
/>
<path stroke="#d0b401" vector-effect="non-scaling-stroke" d="
  M 496.90 77.94
  Q 496.63 77.66 496.36 78.47
  A 0.74 0.74 0.0 0 0 496.52 79.21
  C 498.38 81.14 498.08 84.64 497.86 87.10
  Q 497.81 87.69 498.39 87.78
  L 498.68 87.83
  Q 498.93 87.87 498.95 87.62
  Q 499.28 84.70 499.90 81.83
  C 500.28 80.05 499.12 78.15 497.28 78.11
  Q 497.05 78.11 496.90 77.94"
/>
<path stroke="#d0b401" vector-effect="non-scaling-stroke" d="
  M 499.09 107.96
  L 492.49 101.49
  A 0.12 0.12 0.0 0 0 492.32 101.49
  L 492.29 101.52
  A 4.11 1.98 44.4 0 0 493.84 105.81
  L 494.74 106.70
  A 4.11 1.98 44.4 0 0 499.06 108.16
  L 499.09 108.13
  A 0.12 0.12 0.0 0 0 499.09 107.96"
/>
<path stroke="#d0b401" vector-effect="non-scaling-stroke" d="
  M 511.1017 119.6841
  A 3.41 0.76 48.0 0 0 509.3848 116.6415
  A 3.41 0.76 48.0 0 0 506.5383 114.6159
  A 3.41 0.76 48.0 0 0 508.2552 117.6585
  A 3.41 0.76 48.0 0 0 511.1017 119.6841"
/>
<path stroke="#e1830e" vector-effect="non-scaling-stroke" d="
  M 184.84 181.20
  C 185.17 180.34 185.31 179.21 185.19 178.32
  Q 184.77 175.27 185.00 172.27
  Q 185.09 171.17 183.99 171.17
  Q 181.11 171.14 178.48 170.09
  A 1.26 1.26 0.0 0 0 176.75 171.15
  L 176.04 179.35
  A 1.46 1.45 88.8 0 1 174.78 180.67
  L 167.33 181.62
  A 2.62 2.61 -28.5 0 1 165.33 181.03
  C 163.63 179.59 160.51 179.87 160.30 182.60
  Q 159.96 186.76 160.49 190.73
  A 0.98 0.97 -14.3 0 0 161.81 191.51
  C 163.76 190.76 166.52 188.81 168.51 189.38
  C 170.07 189.83 171.93 190.02 173.52 189.71
  Q 174.23 189.57 174.11 190.28
  Q 173.59 193.21 173.36 196.12
  Q 173.09 199.37 170.38 204.90
  Q 164.91 216.02 156.42 223.70
  Q 155.45 224.58 156.37 225.51
  L 161.47 230.60
  Q 162.60 231.73 163.63 230.52
  L 170.93 222.03
  Q 171.41 221.48 171.73 222.13
  Q 173.01 224.67 174.91 226.93
  Q 175.71 227.88 176.88 227.39
  C 179.75 226.20 182.02 225.73 184.28 223.72
  Q 185.63 222.51 185.46 224.31
  Q 185.30 226.00 185.83 227.54
  A 1.27 1.27 0.0 0 0 186.83 228.38
  Q 189.19 228.75 190.75 230.43
  Q 191.20 230.91 191.85 230.81
  Q 194.31 230.41 196.99 230.90
  Q 199.41 231.34 201.90 230.99
  Q 207.03 230.27 212.00 229.63
  C 214.10 229.36 215.97 228.23 216.82 226.20
  Q 219.09 220.74 219.19 214.39
  Q 219.21 213.54 218.42 213.22
  L 212.26 210.72
  Q 210.91 210.18 210.79 211.63
  C 210.58 214.33 210.95 220.32 207.74 221.40
  Q 204.09 222.62 199.96 223.22
  C 197.85 223.53 196.31 222.15 194.61 221.21
  Q 194.10 220.93 194.06 220.35
  Q 193.85 217.64 195.80 216.12
  Q 205.52 208.59 213.33 197.68
  Q 214.31 196.30 212.87 195.41
  L 208.26 192.52
  Q 206.79 191.60 205.83 193.05
  Q 202.38 198.27 197.47 202.71
  C 196.24 203.82 195.23 205.15 194.13 206.40
  Q 193.10 207.59 193.26 206.02
  L 194.91 190.49
  Q 194.98 189.84 195.60 190.05
  C 197.03 190.54 198.20 190.81 199.73 190.61
  Q 208.48 189.48 217.30 189.20
  Q 218.22 189.17 218.23 188.25
  L 218.30 181.08
  Q 218.32 180.10 217.33 180.10
  L 208.96 180.11
  Q 208.32 180.11 208.56 179.52
  Q 208.81 178.92 208.70 178.27
  A 1.91 1.86 -78.2 0 0 207.93 177.06
  Q 203.51 173.95 200.50 169.56
  A 1.13 1.12 51.7 0 0 198.82 169.36
  L 193.78 173.91
  A 1.39 1.39 0.0 0 0 193.33 175.08
  Q 193.74 179.04 195.68 181.91
  Q 196.06 182.46 195.40 182.59
  Q 193.93 182.87 192.77 181.82
  A 1.19 1.19 0.0 0 0 192.01 181.50
  Q 188.71 181.30 185.33 181.80
  Q 184.57 181.92 184.84 181.20"
/>
<path stroke="#e1830e" vector-effect="non-scaling-stroke" d="
  M 317.10 217.27
  C 315.96 214.32 312.35 215.10 309.94 215.82
  A 0.66 0.66 0.0 0 1 309.13 215.41
  L 309.02 215.09
  Q 308.69 214.15 309.60 213.77
  Q 313.35 212.16 311.26 207.97
  Q 310.75 206.96 309.90 206.33
  Q 308.15 205.03 310.20 204.27
  C 312.34 203.48 312.42 201.31 311.06 199.79
  Q 309.82 198.40 309.80 196.38
  Q 309.79 195.81 309.29 195.53
  Q 307.26 194.38 304.74 193.98
  Q 304.17 193.89 304.31 193.33
  C 305.20 189.50 309.18 185.04 313.60 186.73
  Q 316.58 187.87 313.68 189.21
  Q 310.68 190.61 310.49 194.32
  A 0.95 0.94 -78.6 0 0 311.10 195.25
  Q 312.94 195.96 314.82 196.11
  A 2.72 2.71 -83.6 0 0 317.72 193.79
  L 318.02 191.65
  Q 318.10 191.11 318.54 190.78
  C 320.65 189.22 321.58 187.24 319.19 185.26
  Q 318.52 184.70 318.98 183.96
  L 320.18 181.98
  A 1.60 1.60 0.0 0 0 319.05 179.57
  Q 316.73 179.22 314.60 178.42
  A 2.17 2.17 0.0 0 0 312.96 178.47
  Q 312.39 178.72 311.78 178.67
  Q 311.20 178.62 311.25 178.03
  Q 311.49 175.26 310.93 172.78
  A 2.18 2.17 -89.3 0 0 309.36 171.17
  L 304.71 169.99
  Q 302.25 169.37 302.35 171.90
  Q 302.64 179.15 299.00 183.99
  C 296.75 186.98 294.91 190.30 293.21 193.66
  A 1.40 1.39 36.7 0 0 293.45 195.26
  Q 295.55 197.46 297.85 199.64
  C 300.02 201.71 301.57 199.35 302.19 197.50
  Q 302.53 196.52 303.12 197.37
  L 303.42 197.80
  A 1.55 1.54 -49.2 0 1 303.53 199.37
  L 302.21 202.03
  Q 301.94 202.57 302.15 203.13
  Q 302.78 204.77 302.29 206.58
  Q 302.12 207.21 302.33 207.83
  Q 302.96 209.65 302.44 211.28
  C 301.21 215.07 302.51 218.80 300.39 222.46
  A 1.26 1.25 -44.8 0 0 300.38 223.72
  L 303.78 229.61
  A 0.95 0.95 0.0 0 0 305.16 229.90
  Q 309.59 226.71 314.34 224.23
  Q 315.74 223.49 314.90 224.83
  Q 314.12 226.08 312.64 227.18
  A 1.17 1.17 0.0 0 0 312.81 229.17
  L 319.47 232.50
  A 1.66 1.66 0.0 0 0 321.85 231.27
  L 322.12 229.51
  Q 322.20 229.01 322.70 228.93
  Q 324.22 228.70 324.41 230.16
  Q 324.64 231.87 325.37 233.54
  A 1.49 1.49 0.0 0 0 327.85 233.93
  Q 329.89 231.60 333.26 230.31
  Q 334.62 229.78 335.24 228.80
  C 336.83 226.32 338.17 224.73 341.49 224.74
  Q 342.60 224.74 342.46 225.83
  L 342.30 227.17
  A 2.56 2.54 -74.4 0 0 343.78 229.81
  Q 347.60 231.55 349.36 234.47
  A 1.07 1.06 -42.0 0 0 351.12 234.56
  Q 353.28 231.72 354.83 228.42
  A 1.04 1.04 0.0 0 0 354.17 226.98
  Q 351.08 226.10 349.87 223.25
  A 1.63 1.60 2.4 0 0 349.10 222.43
  Q 346.19 220.99 344.98 217.99
  A 2.16 2.14 -40.3 0 1 345.15 216.03
  Q 346.96 213.12 349.06 210.73
  C 350.75 208.81 351.20 206.73 352.65 204.78
  C 354.24 202.63 354.14 200.06 352.14 198.17
  A 1.78 1.78 0.0 0 1 351.89 195.85
  Q 353.59 193.41 353.03 190.17
  A 0.66 0.65 68.3 0 0 352.02 189.73
  Q 348.29 192.24 344.31 190.34
  Q 343.79 190.08 343.21 190.16
  Q 341.01 190.47 340.18 188.30
  A 1.05 1.05 0.0 0 0 338.56 187.84
  L 336.22 189.65
  Q 335.61 190.12 334.86 189.97
  L 330.08 189.02
  Q 328.27 188.66 328.52 186.83
  L 328.61 186.15
  Q 328.82 184.64 330.27 185.12
  Q 332.33 185.80 334.32 185.21
  Q 342.23 182.87 351.26 181.09
  Q 352.33 180.88 352.15 179.81
  L 350.95 172.48
  Q 350.82 171.71 350.05 171.82
  C 340.86 173.16 331.71 175.16 322.17 175.52
  A 0.86 0.85 82.1 0 0 321.37 176.59
  Q 322.34 180.37 320.66 183.88
  A 1.44 1.44 0.0 0 0 320.64 185.07
  C 321.34 186.71 322.10 188.34 321.48 190.16
  C 320.81 192.18 319.68 195.41 322.07 196.78
  A 1.33 1.33 0.0 0 1 322.65 198.39
  L 320.97 202.85
  Q 320.73 203.48 321.35 203.75
  L 322.50 204.26
  Q 322.99 204.48 323.19 204.98
  Q 323.52 205.78 323.00 206.32
  Q 322.59 206.73 321.94 206.66
  Q 321.24 206.59 320.67 206.36
  A 1.07 1.07 0.0 0 0 319.23 207.55
  Q 320.14 212.38 319.42 216.90
  Q 319.31 217.54 318.81 217.91
  Q 318.25 218.32 317.62 217.91
  Q 317.26 217.68 317.10 217.27"
/>
<path stroke="#e1830e" vector-effect="non-scaling-stroke" d="
  M 276.53 189.56
  L 275.45 192.32
  A 1.21 1.21 0.0 0 0 276.80 193.95
  Q 279.81 193.35 282.84 193.97
  Q 283.64 194.13 284.05 193.43
  Q 286.75 188.83 286.42 182.77
  A 1.34 1.34 0.0 0 0 284.97 181.51
  Q 273.91 182.39 263.43 182.23
  C 262.28 182.21 261.02 182.58 259.92 182.94
  A 0.69 0.69 0.0 0 1 259.02 182.23
  L 259.04 181.91
  Q 259.13 180.87 260.16 180.72
  Q 268.98 179.43 278.40 179.83
  A 1.45 1.45 0.0 0 0 279.92 178.47
  L 280.19 174.54
  Q 280.29 173.03 278.79 173.01
  L 261.65 172.82
  Q 261.12 172.81 260.85 172.36
  L 260.04 171.03
  A 1.25 1.22 76.2 0 0 259.09 170.44
  L 252.31 169.87
  A 0.87 0.87 0.0 0 0 251.36 170.70
  L 250.90 180.93
  A 0.97 0.96 89.3 0 1 250.01 181.85
  Q 241.50 182.48 233.00 181.70
  A 0.97 0.96 -81.5 0 0 231.98 182.46
  Q 231.61 184.20 231.63 185.92
  Q 231.76 197.96 231.14 208.98
  Q 230.55 219.28 224.37 227.16
  A 1.00 0.99 -54.3 0 0 224.60 228.60
  L 230.32 232.43
  A 0.94 0.94 0.0 0 0 231.62 232.17
  Q 235.25 226.81 237.62 220.23
  Q 239.11 216.09 239.39 208.66
  Q 239.73 199.46 240.29 190.49
  A 1.35 1.35 0.0 0 1 241.57 189.22
  Q 246.49 188.96 251.51 188.73
  Q 254.21 188.60 256.83 189.44
  Q 259.18 190.19 261.52 189.52
  Q 262.30 189.30 263.06 189.58
  Q 267.14 191.10 273.14 189.89
  C 274.24 189.67 274.92 189.12 275.99 188.91
  Q 276.85 188.75 276.53 189.56"
/>
<path stroke="#e1830e" vector-effect="non-scaling-stroke" d="
  M 378.42 192.40
  Q 378.98 193.13 379.12 194.09
  Q 379.23 194.84 379.99 194.78
  Q 380.71 194.73 380.97 194.07
  Q 383.90 186.74 384.60 178.43
  A 0.68 0.68 0.0 0 0 383.74 177.72
  C 381.68 178.29 378.43 179.52 376.36 179.00
  A 0.82 0.81 -75.9 0 1 375.78 178.02
  L 376.98 173.18
  Q 377.32 171.82 375.92 171.72
  L 370.60 171.34
  Q 369.30 171.25 368.92 172.50
  Q 365.24 184.57 360.12 196.56
  Q 359.50 198.02 360.77 198.96
  L 364.07 201.41
  Q 365.61 202.55 366.40 200.80
  Q 366.99 199.49 367.61 198.11
  Q 368.51 196.12 368.42 198.31
  Q 367.97 208.99 367.60 220.85
  C 367.55 222.46 366.98 223.81 366.34 225.24
  Q 366.10 225.77 366.41 226.26
  L 369.27 230.94
  A 1.36 1.36 0.0 0 0 371.26 231.31
  L 382.61 222.68
  Q 383.11 222.30 383.16 221.68
  Q 383.48 217.59 381.62 213.02
  Q 381.37 212.41 381.01 212.95
  Q 379.47 215.23 377.21 216.61
  A 0.47 0.47 0.0 0 1 376.49 216.23
  Q 376.21 209.76 377.01 204.05
  C 377.57 200.11 377.07 196.54 377.80 192.55
  Q 377.94 191.77 378.42 192.40"
/>
<path stroke="#e1830e" vector-effect="non-scaling-stroke" d="
  M 415.16 206.73
  L 415.50 207.76
  Q 415.65 208.23 416.12 208.35
  Q 416.89 208.55 417.18 207.83
  C 418.49 204.54 420.90 194.78 418.47 191.58
  Q 417.20 189.89 419.23 190.46
  L 420.59 190.84
  A 1.03 1.03 0.0 0 0 421.90 189.89
  L 422.30 179.28
  A 1.06 1.05 7.0 0 0 421.45 178.20
  Q 415.04 176.90 407.64 176.38
  A 0.59 0.59 0.0 0 1 407.09 175.85
  L 406.75 172.49
  Q 406.61 171.06 405.17 171.15
  L 399.28 171.51
  Q 398.08 171.58 398.50 172.71
  Q 398.86 173.70 398.69 174.60
  Q 398.60 175.06 398.18 175.25
  C 394.13 177.14 390.70 176.70 386.54 176.18
  A 1.17 1.16 -1.6 0 0 385.25 177.54
  C 385.47 178.80 385.80 179.85 385.70 181.17
  Q 385.45 184.51 385.50 187.79
  Q 385.51 188.28 385.79 188.68
  C 386.58 189.80 387.30 190.61 387.28 192.08
  Q 387.23 195.78 386.79 199.16
  C 386.38 202.40 387.47 205.33 387.21 208.55
  Q 386.63 215.66 386.46 223.18
  C 386.41 225.85 385.60 228.42 385.95 231.06
  A 0.75 0.75 0.0 0 0 386.90 231.68
  L 396.74 228.87
  Q 397.23 228.73 397.58 229.10
  Q 400.14 231.77 403.20 231.61
  C 405.91 231.47 409.10 231.89 411.75 231.14
  Q 414.13 230.47 416.63 232.21
  A 1.21 1.21 0.0 0 0 418.52 231.31
  L 420.07 211.04
  A 0.72 0.72 0.0 0 0 419.10 210.31
  Q 416.54 211.26 414.99 209.61
  Q 414.50 209.09 413.85 209.40
  L 412.34 210.11
  Q 411.74 210.38 411.33 209.87
  C 408.62 206.50 404.32 208.29 401.12 210.04
  Q 398.91 211.25 396.10 210.57
  A 1.22 1.22 0.0 0 1 395.18 209.24
  L 395.31 208.22
  A 0.70 0.69 -73.3 0 1 396.31 207.68
  Q 397.19 208.12 398.12 208.16
  A 1.62 1.54 28.1 0 0 399.06 207.90
  Q 404.63 204.21 411.55 207.03
  C 412.42 207.39 413.27 207.03 413.92 206.41
  A 0.76 0.75 59.3 0 1 415.16 206.73"
/>
<path stroke="#e1830e" vector-effect="non-scaling-stroke" d="
  M 258.82 193.31
  Q 258.74 192.51 258.94 191.72
  Q 259.07 191.17 258.63 190.82
  Q 257.79 190.16 256.75 190.73
  Q 256.25 191.01 255.69 190.84
  L 253.27 190.09
  Q 251.80 189.64 251.60 191.16
  Q 251.48 192.07 250.94 192.75
  Q 250.58 193.20 250.00 193.22
  C 245.35 193.34 239.39 192.21 241.44 199.65
  Q 241.60 200.21 242.15 200.39
  L 245.25 201.44
  Q 245.77 201.61 246.25 201.38
  L 249.17 199.99
  A 1.27 1.27 0.0 0 1 250.91 200.71
  L 252.80 205.98
  A 2.49 2.48 79.7 0 0 255.18 207.63
  Q 257.04 207.59 258.74 208.20
  C 260.99 209.02 263.58 208.37 265.92 208.11
  C 269.59 207.69 272.81 209.34 276.42 209.20
  C 280.29 209.05 283.05 202.40 283.54 199.17
  Q 283.66 198.32 282.82 198.16
  L 276.59 196.94
  A 1.21 1.21 0.0 0 0 275.25 197.68
  L 273.60 201.81
  Q 273.41 202.28 272.91 202.35
  Q 268.35 202.94 264.56 201.70
  C 262.96 201.18 261.40 201.36 259.93 202.13
  A 0.80 0.80 0.0 0 1 258.84 201.06
  C 260.22 198.37 267.73 199.16 270.34 199.65
  A 1.44 1.44 0.0 0 0 272.04 198.19
  L 271.92 193.86
  A 0.91 0.91 0.0 0 0 270.65 193.05
  C 268.50 193.97 266.26 193.95 264.01 193.28
  Q 261.71 192.60 259.70 193.76
  Q 258.90 194.23 258.82 193.31"
/>
<path stroke="#e1830e" vector-effect="non-scaling-stroke" d="
  M 261.62 217.40
  Q 262.60 217.69 262.54 218.71
  Q 262.23 224.21 263.72 230.04
  A 1.28 1.27 1.4 0 0 264.58 230.93
  C 266.96 231.64 269.52 233.01 272.02 232.59
  Q 276.24 231.89 280.54 231.24
  Q 282.98 230.88 284.11 229.36
  Q 286.33 226.36 286.98 220.27
  A 0.81 0.81 0.0 0 0 286.44 219.42
  L 280.84 217.48
  Q 279.41 216.98 278.99 218.44
  L 277.68 223.08
  A 1.76 1.75 4.7 0 1 276.18 224.35
  L 272.12 224.80
  A 1.40 1.39 -2.0 0 1 270.57 223.36
  L 271.04 211.74
  A 1.64 1.63 -4.7 0 0 269.07 210.07
  Q 262.81 211.38 257.93 209.83
  Q 255.91 209.19 253.85 209.47
  Q 250.46 209.91 246.87 209.23
  A 1.47 1.46 -84.5 0 0 245.13 210.67
  Q 245.14 214.81 244.67 218.74
  C 244.21 222.69 241.05 224.81 237.97 226.69
  Q 236.33 227.68 237.62 229.11
  L 240.31 232.09
  A 2.38 2.37 51.7 0 0 243.43 232.46
  Q 248.73 228.79 251.13 224.91
  Q 252.68 222.40 253.20 217.84
  Q 253.40 216.07 255.18 216.19
  Q 258.17 216.38 261.62 217.40"
/>
<path stroke="#e1830e" vector-effect="non-scaling-stroke" d="
  M 166.02 280.11
  A 0.67 0.67 0.0 0 1 166.29 279.11
  Q 169.58 277.63 171.54 274.79
  Q 171.91 274.25 171.75 273.61
  Q 171.09 270.89 171.92 268.48
  C 172.84 265.80 171.96 262.95 170.99 260.39
  C 169.49 256.45 163.65 254.50 159.94 254.45
  Q 153.18 254.37 145.52 254.17
  Q 144.14 254.14 144.20 255.51
  Q 144.49 263.00 143.97 271.49
  Q 143.36 281.44 143.78 292.32
  A 0.55 0.54 -12.2 0 0 144.53 292.80
  L 147.83 291.45
  Q 148.34 291.24 148.84 291.45
  L 150.75 292.23
  A 0.79 0.78 -74.9 0 0 151.82 291.61
  Q 152.58 286.33 152.16 280.61
  Q 152.12 279.94 152.79 279.89
  C 155.30 279.72 157.16 279.82 158.60 282.28
  Q 162.37 288.73 166.08 294.30
  A 1.54 1.53 -16.0 0 0 167.32 294.98
  L 175.93 295.14
  Q 176.69 295.16 176.40 294.46
  Q 176.06 293.67 175.56 293.01
  Q 170.78 286.66 166.02 280.11"
/>
<path stroke="#e1830e" vector-effect="non-scaling-stroke" d="
  M 179.50 266.08
  C 181.47 267.49 180.46 272.42 180.00 274.24
  Q 179.55 276.00 179.79 277.82
  Q 180.37 282.00 180.33 285.95
  C 180.32 287.39 181.03 288.70 181.39 290.09
  Q 181.74 291.47 182.86 292.30
  C 188.00 296.11 197.63 296.54 203.64 295.54
  Q 214.50 293.74 216.20 282.47
  Q 216.70 279.10 216.39 276.26
  C 215.83 271.10 217.15 266.27 216.00 261.21
  Q 215.41 258.64 215.57 255.58
  A 0.58 0.57 1.9 0 0 215.00 254.98
  L 205.96 254.97
  A 0.58 0.58 0.0 0 0 205.47 255.86
  Q 207.63 259.34 204.27 261.73
  A 1.34 1.32 73.3 0 0 203.72 262.77
  Q 203.63 265.74 203.77 268.77
  C 203.86 270.63 205.33 271.55 205.31 273.56
  Q 205.25 278.29 205.17 282.72
  Q 205.09 287.05 200.90 287.84
  C 196.83 288.60 188.41 289.30 188.57 282.96
  C 188.65 279.94 189.54 276.92 189.20 273.99
  C 188.78 270.48 189.38 267.02 189.03 263.50
  Q 188.70 260.20 189.22 255.27
  Q 189.23 255.12 189.09 255.09
  Q 185.03 254.43 181.02 254.67
  Q 180.89 254.68 180.86 254.80
  Q 179.60 259.56 178.65 263.98
  Q 178.37 265.27 179.50 266.08"
/>
<path stroke="#e1830e" vector-effect="non-scaling-stroke" d="
  M 235.60 267.45
  A 0.38 0.38 0.0 0 1 235.23 266.88
  Q 236.48 264.82 236.65 262.61
  Q 236.71 261.82 237.48 261.60
  Q 241.56 260.43 244.79 261.20
  Q 247.28 261.79 249.82 262.43
  A 0.74 0.73 -8.0 0 0 250.64 261.35
  C 248.89 258.40 249.38 256.07 245.19 255.32
  C 240.35 254.46 229.19 253.59 226.05 258.80
  Q 225.78 259.24 226.02 259.70
  Q 226.82 261.25 226.12 263.02
  Q 225.92 263.52 226.07 264.03
  Q 226.86 266.73 226.23 269.45
  A 1.63 1.61 37.7 0 0 226.38 270.56
  Q 228.08 273.72 231.05 274.57
  Q 235.96 275.97 241.15 277.67
  C 242.67 278.17 244.12 278.25 245.67 278.53
  A 2.28 2.27 23.6 0 1 247.09 282.14
  L 244.39 285.70
  A 2.69 2.67 20.6 0 1 242.05 286.75
  C 238.30 286.46 234.53 286.74 230.79 286.31
  Q 228.03 285.99 225.15 286.66
  A 1.91 1.91 0.0 0 0 223.71 288.91
  Q 224.20 291.25 223.19 293.42
  A 0.62 0.62 0.0 0 0 223.54 294.26
  Q 227.83 295.77 231.97 295.47
  C 236.68 295.13 241.43 294.87 245.98 294.00
  Q 250.23 293.18 253.02 289.77
  A 1.26 1.24 -25.5 0 0 253.31 288.97
  L 253.28 283.35
  Q 253.28 282.61 253.81 282.09
  L 255.92 280.01
  A 1.56 1.55 57.0 0 0 256.27 278.33
  L 254.84 274.78
  A 1.00 0.99 84.7 0 0 254.13 274.18
  Q 248.55 272.98 242.56 269.08
  Q 239.34 266.98 235.60 267.45"
/>
<path stroke="#e1830e" vector-effect="non-scaling-stroke" d="
  M 270.55 277.76
  Q 271.22 277.40 272.00 277.51
  Q 277.31 278.25 282.27 278.36
  A 0.35 0.35 0.0 0 1 282.61 278.72
  L 282.23 295.73
  Q 282.21 296.51 282.99 296.52
  L 290.32 296.60
  Q 291.00 296.60 291.01 295.93
  L 291.85 256.82
  A 0.81 0.80 -88.6 0 0 291.07 255.99
  L 283.47 255.79
  Q 282.72 255.78 282.72 256.53
  L 282.71 270.47
  A 0.56 0.56 0.0 0 1 282.16 271.03
  Q 277.25 271.12 272.24 270.17
  A 1.86 1.85 -7.0 0 1 270.92 269.15
  C 268.90 264.86 266.76 261.41 267.21 256.39
  A 0.76 0.76 0.0 0 0 266.45 255.57
  L 258.59 255.62
  Q 258.03 255.63 257.93 256.19
  C 257.41 259.33 261.01 259.98 260.78 262.98
  Q 260.69 264.28 260.79 265.57
  A 2.77 2.76 -0.8 0 0 263.40 268.10
  L 265.81 268.23
  Q 266.62 268.27 266.46 269.07
  C 266.08 271.06 266.49 273.62 264.08 274.49
  Q 263.52 274.68 263.31 275.23
  L 261.60 279.54
  Q 261.32 280.24 261.85 280.79
  L 262.58 281.54
  Q 262.94 281.91 262.88 282.42
  Q 262.41 286.92 264.49 290.07
  Q 264.77 290.48 264.73 290.98
  Q 264.63 292.12 263.96 293.04
  A 0.85 0.84 -71.0 0 0 264.61 294.38
  L 269.86 294.58
  A 0.91 0.91 0.0 0 0 270.70 293.24
  C 270.08 292.08 270.10 290.72 270.84 289.63
  Q 272.61 287.00 273.40 283.86
  Q 274.35 280.06 270.60 278.57
  A 0.45 0.45 0.0 0 1 270.55 277.76"
/>
<path stroke="#e1830e" vector-effect="non-scaling-stroke" d="
  M 325.22 282.75
  Q 326.64 282.57 326.02 283.87
  C 324.78 286.47 327.43 287.82 329.48 288.30
  Q 330.25 288.47 330.23 289.27
  Q 330.15 292.32 332.72 295.92
  C 333.85 297.50 334.96 299.08 337.21 298.70
  Q 341.51 297.97 345.94 297.86
  Q 348.66 297.79 346.46 296.21
  Q 342.56 293.40 338.08 291.23
  A 0.68 0.68 0.0 0 1 337.94 290.09
  C 339.87 288.48 337.82 284.33 336.90 282.67
  A 0.91 0.91 0.0 0 1 337.45 281.36
  C 344.53 279.40 346.11 271.28 344.27 265.01
  C 340.58 252.48 325.59 258.22 316.40 256.18
  A 0.72 0.72 0.0 0 0 315.53 256.88
  Q 315.54 265.47 315.41 275.36
  Q 315.36 279.39 312.42 283.03
  Q 311.91 283.67 311.88 284.46
  Q 311.84 285.61 313.08 285.73
  A 0.84 0.84 0.0 0 1 313.58 287.17
  L 311.78 288.92
  A 2.00 2.00 0.0 0 0 311.70 291.71
  C 312.82 292.93 312.44 295.07 312.58 296.65
  Q 312.67 297.71 313.74 297.72
  L 321.02 297.79
  A 1.24 1.24 0.0 0 0 322.28 296.51
  Q 322.18 292.56 322.71 288.21
  C 322.86 286.99 322.49 285.75 322.36 284.52
  A 1.50 1.42 -6.7 0 1 323.66 282.96
  Q 323.78 282.94 325.22 282.75"
/>
<path stroke="#e1830e" vector-effect="non-scaling-stroke" d="
  M 380.18 281.01
  C 379.89 273.87 380.37 266.04 389.24 264.96
  C 394.17 264.35 397.94 264.98 402.60 265.60
  Q 404.82 265.90 403.37 264.19
  Q 401.67 262.19 401.66 259.61
  A 2.12 2.11 -85.1 0 0 399.92 257.54
  Q 392.54 256.21 385.08 257.27
  C 371.20 259.23 369.02 271.76 370.32 283.49
  C 372.06 299.33 387.58 299.49 400.06 297.42
  Q 400.77 297.30 400.64 296.59
  Q 400.02 293.35 401.39 290.27
  A 0.42 0.42 0.0 0 0 400.94 289.69
  C 395.88 290.52 389.28 291.56 384.52 289.44
  Q 380.45 287.62 380.18 281.01"
/>
<path stroke="#e1830e" vector-effect="non-scaling-stroke" d="
  M 357.70 300.75
  Q 358.48 301.29 358.14 302.25
  Q 357.08 305.22 359.63 303.37
  Q 360.92 302.44 361.05 300.92
  C 361.16 299.66 361.79 299.04 362.42 298.06
  Q 362.72 297.57 362.69 297.00
  Q 362.32 290.94 362.11 285.14
  C 361.99 281.76 363.53 277.71 363.05 273.63
  Q 362.16 265.93 362.30 258.61
  Q 362.34 257.02 360.74 257.08
  L 357.53 257.22
  Q 355.58 257.30 356.06 259.18
  Q 356.47 260.82 355.50 262.04
  C 352.19 266.22 353.68 271.52 354.53 276.39
  A 2.19 2.18 -37.5 0 1 354.36 277.66
  Q 353.48 279.52 353.32 281.57
  Q 352.67 289.90 352.83 299.98
  Q 352.84 300.81 353.44 301.35
  Q 353.95 301.81 354.69 301.61
  Q 355.01 301.53 355.18 301.24
  Q 356.09 299.63 357.70 300.75"
/>
<path stroke="#e1830e" vector-effect="non-scaling-stroke" d="
  M 417.76 267.33
  Q 421.46 266.74 424.13 268.25
  A 3.28 3.27 45.1 0 0 427.33 268.26
  Q 428.93 267.37 430.63 267.06
  Q 431.82 266.85 431.84 265.64
  L 431.95 259.11
  Q 431.97 257.75 430.61 257.75
  L 409.52 257.78
  A 0.70 0.69 79.8 0 0 408.87 258.72
  Q 409.99 261.67 410.77 264.91
  C 410.97 265.73 410.73 266.62 409.89 266.96
  C 408.02 267.71 407.19 269.88 407.54 271.73
  Q 408.18 275.08 407.83 278.42
  C 407.59 280.69 408.26 282.74 408.31 284.99
  C 408.32 285.81 408.96 286.63 409.83 286.64
  A 0.65 0.65 0.0 0 1 410.31 287.73
  Q 407.75 290.56 410.15 292.75
  A 1.06 1.05 -47.9 0 1 410.22 294.25
  L 407.83 296.84
  A 0.61 0.61 0.0 0 0 407.97 297.78
  Q 408.71 298.22 409.56 298.29
  Q 419.29 299.06 428.66 300.85
  A 1.55 1.54 15.1 0 0 430.41 299.85
  Q 431.50 296.74 431.41 292.54
  Q 431.40 292.01 430.87 292.01
  C 427.39 292.02 425.56 294.77 421.90 293.35
  C 420.53 292.82 418.94 292.81 417.53 292.81
  A 0.91 0.91 0.0 0 1 416.64 291.70
  Q 417.44 288.13 417.10 285.00
  A 0.64 0.64 0.0 0 1 417.99 284.35
  Q 419.26 284.93 420.63 284.30
  C 423.16 283.14 426.06 283.59 428.82 283.46
  A 1.65 1.65 0.0 0 0 430.38 281.99
  L 431.04 276.00
  Q 431.13 275.15 430.35 275.51
  Q 424.80 278.08 418.25 275.78
  Q 417.79 275.62 417.61 275.17
  Q 416.15 271.48 417.21 267.82
  Q 417.33 267.40 417.76 267.33"
/>
<path stroke="#e1830e" vector-effect="non-scaling-stroke" d="
  M 179.15 207.68
  Q 177.07 212.81 173.33 218.44
  A 0.35 0.35 0.0 0 0 173.46 218.95
  Q 173.70 219.07 173.93 218.93
  Q 177.85 216.42 181.73 214.71
  C 184.07 213.68 185.63 212.16 185.77 209.51
  C 186.08 203.52 186.44 197.39 185.23 191.87
  Q 184.97 190.70 183.99 191.39
  L 183.62 191.64
  A 2.63 2.61 72.0 0 0 182.51 193.84
  C 182.61 199.01 181.47 201.95 179.15 207.68"
/>
<path stroke="#e1830e" vector-effect="non-scaling-stroke" d="
  M 340.49 208.60
  A 1.65 1.65 0.0 0 1 341.31 205.94
  L 343.60 205.31
  A 1.57 1.56 -32.1 0 0 344.22 202.62
  Q 343.51 202.01 343.07 201.26
  A 0.93 0.92 -24.6 0 1 343.58 199.90
  Q 344.41 199.64 344.70 198.91
  Q 345.10 197.92 344.09 198.23
  Q 341.67 198.95 339.70 197.38
  A 2.68 2.67 -40.3 0 0 336.71 197.14
  Q 333.43 198.97 329.95 197.59
  A 0.52 0.52 0.0 0 0 329.25 198.00
  Q 329.07 199.29 329.54 200.18
  Q 329.98 201.00 330.88 200.56
  Q 332.39 199.83 333.88 199.87
  A 1.84 1.84 0.0 0 1 335.65 201.96
  C 335.07 206.21 337.57 208.03 340.01 210.83
  Q 340.87 211.81 341.13 210.54
  Q 341.33 209.58 340.49 208.60"
/>
<path stroke="#e1830e" vector-effect="non-scaling-stroke" d="
  M 325.87 219.38
  Q 325.79 221.53 324.59 223.54
  Q 323.49 225.37 325.47 224.56
  Q 331.12 222.21 332.71 217.87
  A 1.55 1.54 -87.0 0 1 333.78 216.90
  L 334.83 216.63
  Q 335.64 216.42 335.14 215.75
  Q 333.25 213.22 331.98 210.18
  C 331.23 208.39 329.36 207.79 327.86 206.77
  Q 327.19 206.32 327.26 207.12
  C 327.55 210.62 328.63 213.38 326.67 216.66
  Q 325.93 217.89 325.87 219.38"
/>
<path stroke="#e1830e" vector-effect="non-scaling-stroke" d="
  M 377.17 186.90
  A 0.92 0.92 0.0 0 0 375.97 185.80
  L 372.74 186.96
  A 0.92 0.92 0.0 0 0 372.19 187.50
  L 370.34 192.39
  A 0.92 0.92 0.0 0 0 371.49 193.59
  L 375.30 192.32
  A 0.92 0.92 0.0 0 0 375.90 191.68
  L 377.17 186.90"
/>
<path stroke="#e1830e" vector-effect="non-scaling-stroke" d="
  M 414.86 185.70
  L 415.05 183.74
  A 1.60 1.59 -78.8 0 0 413.94 182.07
  Q 410.02 180.88 406.51 182.81
  A 1.87 1.84 -56.7 0 1 405.49 183.03
  Q 399.62 182.62 393.44 184.82
  Q 392.75 185.07 392.66 185.79
  L 392.49 187.14
  Q 392.40 187.86 393.13 187.80
  L 402.68 186.88
  Q 403.54 186.80 404.14 187.40
  Q 404.89 188.16 405.93 187.90
  Q 406.49 187.76 406.93 187.40
  Q 409.76 185.05 413.00 186.72
  Q 414.67 187.58 414.86 185.70"
/>
<path stroke="#e1830e" vector-effect="non-scaling-stroke" d="
  M 399.22 194.46
  Q 399.44 193.47 398.38 192.75
  A 1.32 1.32 0.0 0 0 396.57 193.05
  Q 394.56 195.76 394.82 199.31
  Q 394.85 199.78 395.29 199.94
  Q 399.39 201.51 402.03 198.80
  Q 402.45 198.36 402.92 198.75
  Q 405.08 200.54 408.21 200.24
  Q 408.86 200.18 409.21 199.62
  Q 410.33 197.80 410.85 195.34
  A 0.59 0.59 0.0 0 0 409.95 194.72
  Q 405.58 197.57 403.04 194.13
  Q 402.72 193.70 402.24 193.94
  L 400.01 195.07
  A 0.55 0.55 0.0 0 1 399.22 194.46"
/>
<path stroke="#e1830e" vector-effect="non-scaling-stroke" d="
  M 407.34 223.78
  Q 410.46 225.24 411.10 222.07
  Q 411.55 219.78 411.95 217.12
  A 0.57 0.56 11.9 0 0 411.53 216.49
  C 410.70 216.27 409.60 216.74 408.68 216.73
  Q 402.54 216.67 396.76 216.58
  A 1.63 1.62 -88.9 0 0 395.11 218.18
  Q 395.08 219.75 395.64 221.41
  Q 395.80 221.90 396.24 222.16
  Q 398.59 223.55 400.80 222.76
  C 402.87 222.02 405.41 222.87 407.34 223.78"
/>
<path stroke="#e1830e" vector-effect="non-scaling-stroke" d="
  M 152.93 261.80
  L 153.05 273.02
  A 0.41 0.41 0.0 0 0 153.46 273.42
  L 158.70 273.37
  A 5.45 5.12 -0.6 0 0 164.10 268.19
  L 164.08 266.39
  A 5.45 5.12 -0.6 0 0 158.58 261.33
  L 153.34 261.38
  A 0.41 0.41 0.0 0 0 152.93 261.80"
/>
<path stroke="#e1830e" vector-effect="non-scaling-stroke" d="
  M 324.40 264.12
  L 324.24 274.82
  A 0.59 0.59 0.0 0 0 324.82 275.42
  L 330.34 275.50
  A 5.43 4.93 0.9 0 0 335.84 270.66
  L 335.88 268.64
  A 5.43 4.93 0.9 0 0 330.52 263.63
  L 325.00 263.54
  A 0.59 0.59 0.0 0 0 324.40 264.12"
/>
</g>
<path fill="#ffed00" d="
  M 513.00 121.33
  Q 509.78 123.74 506.12 121.33
  Q 501.71 118.43 498.11 118.40
  Q 490.44 118.34 484.11 118.37
  Q 483.98 118.37 483.87 118.32
  Q 483.73 118.27 483.72 118.10
  Q 483.71 117.90 483.51 117.89
  Q 480.40 117.77 477.00 118.20
  Q 472.84 118.72 463.82 118.30
  C 450.91 117.69 437.88 117.94 425.00 117.61
  Q 421.07 117.51 417.53 117.61
  C 405.21 117.93 390.64 117.24 377.00 117.29
  Q 348.55 117.40 319.75 117.53
  Q 309.48 117.58 299.79 117.22
  Q 281.31 116.54 252.89 116.50
  C 250.63 116.49 247.96 115.91 245.69 116.38
  Q 241.14 117.31 236.96 116.45
  Q 236.16 116.28 235.44 116.65
  Q 234.97 116.89 234.44 116.88
  Q 228.28 116.85 222.00 116.84
  C 220.98 116.84 220.44 116.37 219.59 115.98
  Q 219.08 115.75 218.60 116.05
  Q 217.43 116.79 216.49 116.75
  Q 193.29 115.83 170.13 116.33
  C 163.70 116.47 157.44 117.43 151.02 117.30
  Q 124.21 116.75 97.60 116.36
  Q 96.54 116.34 95.88 115.56
  Q 95.72 115.37 95.54 115.55
  Q 94.64 116.46 93.31 116.33
  Q 85.08 115.54 76.32 115.61
  Q 72.76 115.64 67.74 115.14
  Q 63.54 114.72 59.18 114.78
  Q 59.05 112.66 60.26 110.80
  Q 61.32 109.17 63.20 108.25
  C 67.00 106.39 70.86 103.97 75.16 103.77
  C 77.74 103.65 79.08 106.86 80.24 108.72
  A 1.49 1.46 80.2 0 0 81.13 109.36
  Q 83.55 109.96 85.71 109.52
  A 1.70 1.69 76.5 0 0 87.00 107.40
  C 86.00 103.81 81.12 93.97 89.30 94.27
  Q 93.76 94.44 97.84 95.01
  Q 100.73 95.42 103.61 94.18
  C 106.87 92.78 110.06 91.13 113.52 90.16
  C 119.63 88.46 125.86 86.61 132.23 86.16
  Q 133.98 86.03 134.94 87.73
  Q 137.54 92.35 140.63 97.11
  A 1.89 1.89 0.0 0 0 143.49 97.48
  Q 145.93 95.27 146.33 91.95
  Q 146.40 91.36 146.08 90.85
  L 145.38 89.71
  A 0.59 0.58 -35.7 0 1 145.51 88.94
  C 146.36 88.26 147.16 87.40 147.28 86.25
  Q 147.63 82.74 147.18 79.36
  Q 146.74 76.04 148.98 73.62
  Q 149.42 73.16 150.04 73.02
  C 153.50 72.27 154.00 69.07 155.15 66.28
  Q 155.91 64.44 156.61 66.31
  C 157.30 68.17 157.18 71.36 159.98 71.19
  Q 163.80 70.95 167.40 69.91
  A 1.31 1.30 77.3 0 0 168.32 68.44
  C 167.82 65.38 167.50 60.91 170.86 59.15
  C 172.05 58.53 173.10 57.54 173.63 56.30
  Q 176.23 50.34 182.90 48.80
  C 189.11 47.38 185.63 57.13 185.96 59.61
  Q 186.45 63.29 188.92 65.50
  Q 190.73 67.12 191.27 69.39
  Q 192.64 75.16 195.21 81.37
  Q 195.42 81.86 195.95 81.88
  Q 198.77 82.00 201.12 83.78
  A 1.54 1.53 23.4 0 0 203.56 82.82
  C 203.87 80.97 204.25 78.95 205.51 77.46
  C 208.26 74.23 210.71 72.14 214.80 71.04
  Q 221.67 69.18 228.16 67.17
  C 232.09 65.95 231.95 62.73 230.67 59.33
  Q 230.32 58.40 230.23 57.38
  Q 229.79 51.80 229.10 46.02
  C 228.81 43.63 228.65 40.11 229.69 37.73
  Q 230.41 36.08 230.51 34.22
  A 1.77 1.71 -25.5 0 1 230.87 33.26
  Q 233.50 29.90 237.71 28.56
  A 1.57 1.52 -44.1 0 1 238.68 28.56
  Q 239.52 28.82 240.43 28.64
  Q 240.95 28.53 241.23 28.09
  C 242.55 26.07 246.45 21.73 249.18 22.54
  Q 256.23 24.63 260.58 29.75
  C 262.88 32.44 265.55 34.40 267.87 36.97
  A 2.52 2.51 44.5 0 0 271.63 36.94
  C 275.13 32.95 278.71 28.78 284.46 28.65
  C 286.99 28.59 291.54 30.48 291.59 33.75
  C 291.63 35.82 291.03 37.10 289.73 38.54
  Q 288.92 39.44 288.68 40.67
  Q 286.89 49.73 295.42 54.18
  C 298.75 55.91 299.98 52.09 302.58 53.14
  A 1.71 1.71 0.0 0 0 304.90 51.83
  Q 305.61 47.45 311.06 46.11
  C 314.21 45.35 316.32 49.23 317.77 51.40
  A 1.48 1.48 0.0 0 0 320.32 51.24
  Q 321.64 48.62 324.53 46.13
  C 326.09 44.78 329.24 44.24 329.70 47.01
  C 330.22 50.11 327.57 54.03 325.74 56.36
  C 324.62 57.79 325.24 59.28 326.45 60.35
  Q 331.52 64.81 338.51 64.82
  Q 341.93 64.82 343.85 63.02
  C 347.04 60.04 348.24 56.01 350.80 52.54
  Q 351.14 52.09 351.65 51.85
  L 356.73 49.49
  Q 357.13 49.30 357.36 48.92
  Q 358.68 46.75 359.04 45.23
  Q 360.33 39.83 361.61 35.06
  A 1.93 1.93 0.0 0 1 364.43 33.89
  C 369.35 36.71 368.84 41.91 367.82 46.74
  Q 367.57 47.92 366.62 48.58
  Q 366.26 48.83 366.35 49.26
  Q 366.83 51.42 366.42 53.77
  A 0.84 0.82 23.7 0 0 366.75 54.58
  C 369.08 56.31 371.74 54.20 373.27 52.45
  A 0.93 0.93 0.0 0 0 373.36 51.33
  C 370.98 47.52 370.42 42.51 373.06 38.64
  C 375.43 35.18 377.02 31.69 382.31 33.37
  A 1.66 1.62 -5.1 0 1 383.23 34.12
  Q 385.91 38.80 390.32 41.70
  Q 393.88 44.04 395.87 47.51
  A 2.46 2.45 38.9 0 1 396.08 49.46
  Q 394.75 53.73 392.68 58.10
  Q 391.00 61.63 394.12 62.61
  C 395.73 63.12 397.77 62.15 398.96 61.00
  C 401.19 58.86 403.43 59.26 406.17 59.48
  C 409.15 59.71 411.29 58.00 413.53 56.33
  Q 419.21 52.09 421.78 45.76
  C 422.48 44.01 423.85 43.29 425.68 43.43
  Q 426.28 43.48 426.77 43.14
  Q 429.84 41.05 431.70 40.92
  C 435.74 40.65 437.79 44.73 438.17 48.28
  Q 438.38 50.23 439.11 52.19
  C 440.29 55.36 440.59 58.82 442.23 61.75
  C 443.66 64.28 444.50 67.59 443.69 70.47
  Q 443.33 71.77 442.98 73.14
  C 441.46 79.11 450.60 81.26 454.51 81.44
  Q 459.84 81.70 464.65 81.16
  C 467.48 80.85 469.18 77.31 469.90 74.87
  C 471.88 68.28 476.96 66.08 483.35 65.68
  Q 485.50 65.55 487.55 66.27
  Q 490.06 67.15 493.53 66.78
  Q 496.19 66.50 497.09 68.94
  C 497.81 70.90 496.92 72.52 497.28 74.52
  A 1.54 1.52 -72.2 0 0 497.69 75.33
  C 498.85 76.57 500.68 77.70 501.01 79.40
  Q 503.00 89.71 496.61 96.14
  C 492.90 99.87 498.61 105.00 501.44 106.96
  C 505.09 109.48 514.96 116.16 513.00 121.33
  Z
  M 289.91 32.36
  L 287.67 32.38
  A 0.21 0.21 0.0 0 0 287.46 32.59
  L 287.46 32.69
  A 3.11 1.24 89.7 0 0 288.72 35.79
  L 288.90 35.79
  A 3.11 1.24 89.7 0 0 290.12 32.67
  L 290.12 32.57
  A 0.21 0.21 0.0 0 0 289.91 32.36
  Z
  M 378.23 40.44
  Q 378.67 42.48 378.14 44.44
  Q 378.03 44.86 377.60 44.93
  Q 376.27 45.12 375.57 46.25
  Q 375.09 47.01 375.91 46.64
  Q 380.58 44.54 379.10 39.94
  A 1.78 1.77 -8.7 0 1 380.80 37.63
  L 382.16 37.64
  Q 382.76 37.65 382.92 37.07
  Q 383.35 35.54 381.23 34.55
  A 2.94 2.93 -49.7 0 0 378.36 34.79
  C 377.13 35.62 375.95 36.65 375.27 38.02
  Q 374.60 39.37 373.89 40.73
  Q 373.00 42.43 373.96 44.86
  Q 374.18 45.42 374.73 45.18
  L 377.22 44.11
  A 1.17 1.16 -3.9 0 0 377.89 43.35
  Q 378.27 42.00 378.12 40.46
  Q 378.03 39.56 378.23 40.44
  Z
  M 433.69 46.02
  Q 432.93 44.48 431.08 44.31
  Q 430.88 44.29 430.82 44.48
  L 430.75 44.74
  Q 430.72 44.82 430.80 44.84
  Q 433.72 45.61 434.14 48.42
  Q 434.26 49.18 434.54 48.47
  Q 434.95 47.42 434.14 46.65
  Q 433.86 46.38 433.69 46.02
  Z
  M 391.49 45.66
  L 392.38 51.80
  A 0.11 0.11 0.0 0 0 392.51 51.89
  L 392.53 51.89
  A 3.12 2.34 81.7 0 0 394.40 48.46
  L 394.37 48.28
  A 3.12 2.34 81.7 0 0 391.61 45.53
  L 391.58 45.54
  A 0.11 0.11 0.0 0 0 391.49 45.66
  Z
  M 320.94 53.66
  Q 320.08 54.51 319.06 54.65
  Q 318.57 54.72 318.16 54.46
  Q 315.87 53.07 314.95 50.66
  Q 314.78 50.23 314.38 50.00
  Q 313.75 49.64 313.76 48.89
  A 1.41 1.40 80.2 0 0 311.88 47.56
  C 309.20 48.54 307.13 48.19 306.97 51.91
  C 306.89 53.88 305.13 55.26 303.21 54.94
  Q 300.89 54.55 298.94 56.19
  C 295.45 59.13 289.36 51.39 287.87 48.68
  Q 287.54 48.07 287.04 47.56
  Q 286.03 46.55 286.24 47.96
  Q 286.65 50.81 288.20 53.27
  Q 292.29 59.75 299.45 57.68
  Q 300.66 57.33 301.95 57.25
  Q 303.49 57.15 304.87 56.88
  A 3.15 3.14 10.8 0 0 306.89 55.51
  C 308.30 53.34 308.99 49.72 312.52 50.33
  Q 313.02 50.42 313.24 50.88
  Q 314.65 53.98 317.02 56.27
  Q 317.39 56.63 317.90 56.66
  Q 321.36 56.91 323.48 54.30
  Q 325.75 51.47 327.35 48.61
  Q 328.40 46.73 326.36 47.42
  Q 323.81 48.29 322.19 51.90
  Q 321.76 52.87 320.94 53.66
  Z
  M 494.56 68.60
  A 0.68 0.68 0.0 0 0 494.04 68.64
  L 493.25 69.02
  A 0.68 0.68 0.0 0 0 492.97 69.98
  L 494.10 71.88
  A 0.68 0.68 0.0 0 0 495.29 71.85
  L 496.25 70.01
  A 0.68 0.68 0.0 0 0 495.86 69.05
  L 494.56 68.60
  Z
  M 496.90 77.94
  Q 496.63 77.66 496.36 78.47
  A 0.74 0.74 0.0 0 0 496.52 79.21
  C 498.38 81.14 498.08 84.64 497.86 87.10
  Q 497.81 87.69 498.39 87.78
  L 498.68 87.83
  Q 498.93 87.87 498.95 87.62
  Q 499.28 84.70 499.90 81.83
  C 500.28 80.05 499.12 78.15 497.28 78.11
  Q 497.05 78.11 496.90 77.94
  Z
  M 499.09 107.96
  L 492.49 101.49
  A 0.12 0.12 0.0 0 0 492.32 101.49
  L 492.29 101.52
  A 4.11 1.98 44.4 0 0 493.84 105.81
  L 494.74 106.70
  A 4.11 1.98 44.4 0 0 499.06 108.16
  L 499.09 108.13
  A 0.12 0.12 0.0 0 0 499.09 107.96
  Z
  M 511.1017 119.6841
  A 3.41 0.76 48.0 0 0 509.3848 116.6415
  A 3.41 0.76 48.0 0 0 506.5383 114.6159
  A 3.41 0.76 48.0 0 0 508.2552 117.6585
  A 3.41 0.76 48.0 0 0 511.1017 119.6841
  Z"
/>
<path fill="#a17a02" d="
  M 289.91 32.36
  A 0.21 0.21 0.0 0 1 290.12 32.57
  L 290.12 32.67
  A 3.11 1.24 89.7 0 1 288.90 35.79
  L 288.72 35.79
  A 3.11 1.24 89.7 0 1 287.46 32.69
  L 287.46 32.59
  A 0.21 0.21 0.0 0 1 287.67 32.38
  L 289.91 32.36
  Z"
/>
<path fill="#a17a02" d="
  M 378.12 40.46
  Q 378.27 42.00 377.89 43.35
  A 1.17 1.16 -3.9 0 1 377.22 44.11
  L 374.73 45.18
  Q 374.18 45.42 373.96 44.86
  Q 373.00 42.43 373.89 40.73
  Q 374.60 39.37 375.27 38.02
  C 375.95 36.65 377.13 35.62 378.36 34.79
  A 2.94 2.93 -49.7 0 1 381.23 34.55
  Q 383.35 35.54 382.92 37.07
  Q 382.76 37.65 382.16 37.64
  L 380.80 37.63
  A 1.78 1.77 -8.7 0 0 379.10 39.94
  Q 380.58 44.54 375.91 46.64
  Q 375.09 47.01 375.57 46.25
  Q 376.27 45.12 377.60 44.93
  Q 378.03 44.86 378.14 44.44
  Q 378.67 42.48 378.23 40.44
  Q 378.03 39.56 378.12 40.46
  Z"
/>
<path fill="#a17a02" d="
  M 434.14 46.65
  Q 434.95 47.42 434.54 48.47
  Q 434.26 49.18 434.14 48.42
  Q 433.72 45.61 430.80 44.84
  Q 430.72 44.82 430.75 44.74
  L 430.82 44.48
  Q 430.88 44.29 431.08 44.31
  Q 432.93 44.48 433.69 46.02
  Q 433.86 46.38 434.14 46.65
  Z"
/>
<path fill="#a17a02" d="
  M 391.49 45.66
  A 0.11 0.11 0.0 0 1 391.58 45.54
  L 391.61 45.53
  A 3.12 2.34 81.7 0 1 394.37 48.28
  L 394.40 48.46
  A 3.12 2.34 81.7 0 1 392.53 51.89
  L 392.51 51.89
  A 0.11 0.11 0.0 0 1 392.38 51.80
  L 391.49 45.66
  Z"
/>
<path fill="#a17a02" d="
  M 322.19 51.90
  Q 323.81 48.29 326.36 47.42
  Q 328.40 46.73 327.35 48.61
  Q 325.75 51.47 323.48 54.30
  Q 321.36 56.91 317.90 56.66
  Q 317.39 56.63 317.02 56.27
  Q 314.65 53.98 313.24 50.88
  Q 313.02 50.42 312.52 50.33
  C 308.99 49.72 308.30 53.34 306.89 55.51
  A 3.15 3.14 10.8 0 1 304.87 56.88
  Q 303.49 57.15 301.95 57.25
  Q 300.66 57.33 299.45 57.68
  Q 292.29 59.75 288.20 53.27
  Q 286.65 50.81 286.24 47.96
  Q 286.03 46.55 287.04 47.56
  Q 287.54 48.07 287.87 48.68
  C 289.36 51.39 295.45 59.13 298.94 56.19
  Q 300.89 54.55 303.21 54.94
  C 305.13 55.26 306.89 53.88 306.97 51.91
  C 307.13 48.19 309.20 48.54 311.88 47.56
  A 1.41 1.40 80.2 0 1 313.76 48.89
  Q 313.75 49.64 314.38 50.00
  Q 314.78 50.23 314.95 50.66
  Q 315.87 53.07 318.16 54.46
  Q 318.57 54.72 319.06 54.65
  Q 320.08 54.51 320.94 53.66
  Q 321.76 52.87 322.19 51.90
  Z"
/>
<path fill="#a17a02" d="
  M 494.56 68.60
  L 495.86 69.05
  A 0.68 0.68 0.0 0 1 496.25 70.01
  L 495.29 71.85
  A 0.68 0.68 0.0 0 1 494.10 71.88
  L 492.97 69.98
  A 0.68 0.68 0.0 0 1 493.25 69.02
  L 494.04 68.64
  A 0.68 0.68 0.0 0 1 494.56 68.60
  Z"
/>
<path fill="#a17a02" d="
  M 497.28 78.11
  C 499.12 78.15 500.28 80.05 499.90 81.83
  Q 499.28 84.70 498.95 87.62
  Q 498.93 87.87 498.68 87.83
  L 498.39 87.78
  Q 497.81 87.69 497.86 87.10
  C 498.08 84.64 498.38 81.14 496.52 79.21
  A 0.74 0.74 0.0 0 1 496.36 78.47
  Q 496.63 77.66 496.90 77.94
  Q 497.05 78.11 497.28 78.11
  Z"
/>
<path fill="#a17a02" d="
  M 499.09 107.96
  A 0.12 0.12 0.0 0 1 499.09 108.13
  L 499.06 108.16
  A 4.11 1.98 44.4 0 1 494.74 106.70
  L 493.84 105.81
  A 4.11 1.98 44.4 0 1 492.29 101.52
  L 492.32 101.49
  A 0.12 0.12 0.0 0 1 492.49 101.49
  L 499.09 107.96
  Z"
/>
<path fill="#0d0301" d="
  M 59.18 114.78
  Q 63.54 114.72 67.74 115.14
  Q 72.76 115.64 76.32 115.61
  Q 85.08 115.54 93.31 116.33
  Q 94.64 116.46 95.54 115.55
  Q 95.72 115.37 95.88 115.56
  Q 96.54 116.34 97.60 116.36
  Q 124.21 116.75 151.02 117.30
  C 157.44 117.43 163.70 116.47 170.13 116.33
  Q 193.29 115.83 216.49 116.75
  Q 217.43 116.79 218.60 116.05
  Q 219.08 115.75 219.59 115.98
  C 220.44 116.37 220.98 116.84 222.00 116.84
  Q 228.28 116.85 234.44 116.88
  Q 234.97 116.89 235.44 116.65
  Q 236.16 116.28 236.96 116.45
  Q 241.14 117.31 245.69 116.38
  C 247.96 115.91 250.63 116.49 252.89 116.50
  Q 281.31 116.54 299.79 117.22
  Q 309.48 117.58 319.75 117.53
  Q 348.55 117.40 377.00 117.29
  C 390.64 117.24 405.21 117.93 417.53 117.61
  Q 421.07 117.51 425.00 117.61
  C 437.88 117.94 450.91 117.69 463.82 118.30
  Q 472.84 118.72 477.00 118.20
  Q 480.40 117.77 483.51 117.89
  Q 483.71 117.90 483.72 118.10
  Q 483.73 118.27 483.87 118.32
  Q 483.98 118.37 484.11 118.37
  Q 490.44 118.34 498.11 118.40
  Q 501.71 118.43 506.12 121.33
  Q 509.78 123.74 513.00 121.33
  C 511.87 124.26 514.95 125.12 516.84 125.94
  Q 514.42 125.82 512.10 125.50
  Q 509.50 125.14 507.37 125.07
  Q 503.30 124.93 499.26 124.45
  Q 494.23 123.85 491.07 123.98
  Q 484.79 124.22 478.54 123.98
  Q 474.72 123.84 471.00 123.40
  C 466.09 122.82 461.20 123.16 456.15 122.84
  Q 445.03 122.14 433.30 122.01
  C 419.94 121.87 404.68 120.53 389.95 121.13
  C 379.13 121.57 366.59 120.03 356.24 120.21
  Q 337.67 120.53 320.47 120.40
  C 309.37 120.31 297.18 119.08 285.63 119.29
  Q 275.60 119.47 268.29 119.43
  C 248.78 119.32 229.00 119.82 209.38 119.26
  Q 194.77 118.84 180.77 119.08
  Q 169.55 119.28 160.59 119.16
  C 143.91 118.95 126.62 118.23 109.90 118.75
  C 104.29 118.93 98.90 118.54 93.28 118.32
  C 88.40 118.13 83.09 119.43 78.25 119.10
  Q 66.50 118.32 58.06 119.58
  Q 59.23 117.70 59.18 114.78
  Z"
/>
<ellipse fill="#a17a02" cx="0.00" cy="0.00" transform="translate(508.82,117.15) rotate(48.0)" rx="3.41" ry="0.76"/>
<path fill="#c3191b" d="
  M 516.84 125.94
  Q 520.36 127.67 520.52 132.76
  Q 520.99 148.07 519.99 155.78
  Q 517.33 176.36 512.93 198.77
  Q 511.32 206.95 508.07 216.90
  Q 504.89 226.63 502.19 235.06
  C 498.75 245.83 493.08 254.70 487.81 264.14
  C 484.70 269.70 481.12 275.53 477.15 280.47
  Q 468.46 291.27 460.42 300.28
  C 453.01 308.59 443.33 316.68 435.02 324.61
  Q 426.04 333.17 415.12 342.13
  C 404.68 350.70 393.91 357.54 382.13 364.24
  Q 380.03 365.43 378.18 366.79
  C 374.25 369.66 371.54 371.13 366.46 370.71
  Q 360.80 370.24 355.45 370.46
  Q 340.99 371.07 329.54 371.00
  Q 299.95 370.82 268.70 369.57
  Q 257.81 369.13 248.72 369.11
  Q 228.17 369.06 209.12 368.65
  Q 200.04 368.46 190.92 363.33
  Q 174.26 353.96 161.45 344.83
  Q 154.03 339.54 146.05 332.03
  C 134.76 321.41 124.59 311.41 114.78 299.22
  Q 105.82 288.09 98.41 277.78
  C 93.38 270.78 88.61 263.23 85.02 255.33
  Q 82.07 248.86 78.96 242.06
  Q 75.31 234.06 72.29 225.53
  C 68.09 213.62 65.38 200.62 62.38 188.44
  Q 60.72 181.67 59.02 173.03
  Q 57.48 165.17 56.85 158.15
  Q 55.52 143.25 55.87 128.26
  Q 55.94 125.17 58.06 119.58
  Q 66.50 118.32 78.25 119.10
  C 83.09 119.43 88.40 118.13 93.28 118.32
  C 98.90 118.54 104.29 118.93 109.90 118.75
  C 126.62 118.23 143.91 118.95 160.59 119.16
  Q 169.55 119.28 180.77 119.08
  Q 194.77 118.84 209.38 119.26
  C 229.00 119.82 248.78 119.32 268.29 119.43
  Q 275.60 119.47 285.63 119.29
  C 297.18 119.08 309.37 120.31 320.47 120.40
  Q 337.67 120.53 356.24 120.21
  C 366.59 120.03 379.13 121.57 389.95 121.13
  C 404.68 120.53 419.94 121.87 433.30 122.01
  Q 445.03 122.14 456.15 122.84
  C 461.20 123.16 466.09 122.82 471.00 123.40
  Q 474.72 123.84 478.54 123.98
  Q 484.79 124.22 491.07 123.98
  Q 494.23 123.85 499.26 124.45
  Q 503.30 124.93 507.37 125.07
  Q 509.50 125.14 512.10 125.50
  Q 514.42 125.82 516.84 125.94
  Z
  M 184.84 181.20
  C 185.17 180.34 185.31 179.21 185.19 178.32
  Q 184.77 175.27 185.00 172.27
  Q 185.09 171.17 183.99 171.17
  Q 181.11 171.14 178.48 170.09
  A 1.26 1.26 0.0 0 0 176.75 171.15
  L 176.04 179.35
  A 1.46 1.45 88.8 0 1 174.78 180.67
  L 167.33 181.62
  A 2.62 2.61 -28.5 0 1 165.33 181.03
  C 163.63 179.59 160.51 179.87 160.30 182.60
  Q 159.96 186.76 160.49 190.73
  A 0.98 0.97 -14.3 0 0 161.81 191.51
  C 163.76 190.76 166.52 188.81 168.51 189.38
  C 170.07 189.83 171.93 190.02 173.52 189.71
  Q 174.23 189.57 174.11 190.28
  Q 173.59 193.21 173.36 196.12
  Q 173.09 199.37 170.38 204.90
  Q 164.91 216.02 156.42 223.70
  Q 155.45 224.58 156.37 225.51
  L 161.47 230.60
  Q 162.60 231.73 163.63 230.52
  L 170.93 222.03
  Q 171.41 221.48 171.73 222.13
  Q 173.01 224.67 174.91 226.93
  Q 175.71 227.88 176.88 227.39
  C 179.75 226.20 182.02 225.73 184.28 223.72
  Q 185.63 222.51 185.46 224.31
  Q 185.30 226.00 185.83 227.54
  A 1.27 1.27 0.0 0 0 186.83 228.38
  Q 189.19 228.75 190.75 230.43
  Q 191.20 230.91 191.85 230.81
  Q 194.31 230.41 196.99 230.90
  Q 199.41 231.34 201.90 230.99
  Q 207.03 230.27 212.00 229.63
  C 214.10 229.36 215.97 228.23 216.82 226.20
  Q 219.09 220.74 219.19 214.39
  Q 219.21 213.54 218.42 213.22
  L 212.26 210.72
  Q 210.91 210.18 210.79 211.63
  C 210.58 214.33 210.95 220.32 207.74 221.40
  Q 204.09 222.62 199.96 223.22
  C 197.85 223.53 196.31 222.15 194.61 221.21
  Q 194.10 220.93 194.06 220.35
  Q 193.85 217.64 195.80 216.12
  Q 205.52 208.59 213.33 197.68
  Q 214.31 196.30 212.87 195.41
  L 208.26 192.52
  Q 206.79 191.60 205.83 193.05
  Q 202.38 198.27 197.47 202.71
  C 196.24 203.82 195.23 205.15 194.13 206.40
  Q 193.10 207.59 193.26 206.02
  L 194.91 190.49
  Q 194.98 189.84 195.60 190.05
  C 197.03 190.54 198.20 190.81 199.73 190.61
  Q 208.48 189.48 217.30 189.20
  Q 218.22 189.17 218.23 188.25
  L 218.30 181.08
  Q 218.32 180.10 217.33 180.10
  L 208.96 180.11
  Q 208.32 180.11 208.56 179.52
  Q 208.81 178.92 208.70 178.27
  A 1.91 1.86 -78.2 0 0 207.93 177.06
  Q 203.51 173.95 200.50 169.56
  A 1.13 1.12 51.7 0 0 198.82 169.36
  L 193.78 173.91
  A 1.39 1.39 0.0 0 0 193.33 175.08
  Q 193.74 179.04 195.68 181.91
  Q 196.06 182.46 195.40 182.59
  Q 193.93 182.87 192.77 181.82
  A 1.19 1.19 0.0 0 0 192.01 181.50
  Q 188.71 181.30 185.33 181.80
  Q 184.57 181.92 184.84 181.20
  Z
  M 317.10 217.27
  C 315.96 214.32 312.35 215.10 309.94 215.82
  A 0.66 0.66 0.0 0 1 309.13 215.41
  L 309.02 215.09
  Q 308.69 214.15 309.60 213.77
  Q 313.35 212.16 311.26 207.97
  Q 310.75 206.96 309.90 206.33
  Q 308.15 205.03 310.20 204.27
  C 312.34 203.48 312.42 201.31 311.06 199.79
  Q 309.82 198.40 309.80 196.38
  Q 309.79 195.81 309.29 195.53
  Q 307.26 194.38 304.74 193.98
  Q 304.17 193.89 304.31 193.33
  C 305.20 189.50 309.18 185.04 313.60 186.73
  Q 316.58 187.87 313.68 189.21
  Q 310.68 190.61 310.49 194.32
  A 0.95 0.94 -78.6 0 0 311.10 195.25
  Q 312.94 195.96 314.82 196.11
  A 2.72 2.71 -83.6 0 0 317.72 193.79
  L 318.02 191.65
  Q 318.10 191.11 318.54 190.78
  C 320.65 189.22 321.58 187.24 319.19 185.26
  Q 318.52 184.70 318.98 183.96
  L 320.18 181.98
  A 1.60 1.60 0.0 0 0 319.05 179.57
  Q 316.73 179.22 314.60 178.42
  A 2.17 2.17 0.0 0 0 312.96 178.47
  Q 312.39 178.72 311.78 178.67
  Q 311.20 178.62 311.25 178.03
  Q 311.49 175.26 310.93 172.78
  A 2.18 2.17 -89.3 0 0 309.36 171.17
  L 304.71 169.99
  Q 302.25 169.37 302.35 171.90
  Q 302.64 179.15 299.00 183.99
  C 296.75 186.98 294.91 190.30 293.21 193.66
  A 1.40 1.39 36.7 0 0 293.45 195.26
  Q 295.55 197.46 297.85 199.64
  C 300.02 201.71 301.57 199.35 302.19 197.50
  Q 302.53 196.52 303.12 197.37
  L 303.42 197.80
  A 1.55 1.54 -49.2 0 1 303.53 199.37
  L 302.21 202.03
  Q 301.94 202.57 302.15 203.13
  Q 302.78 204.77 302.29 206.58
  Q 302.12 207.21 302.33 207.83
  Q 302.96 209.65 302.44 211.28
  C 301.21 215.07 302.51 218.80 300.39 222.46
  A 1.26 1.25 -44.8 0 0 300.38 223.72
  L 303.78 229.61
  A 0.95 0.95 0.0 0 0 305.16 229.90
  Q 309.59 226.71 314.34 224.23
  Q 315.74 223.49 314.90 224.83
  Q 314.12 226.08 312.64 227.18
  A 1.17 1.17 0.0 0 0 312.81 229.17
  L 319.47 232.50
  A 1.66 1.66 0.0 0 0 321.85 231.27
  L 322.12 229.51
  Q 322.20 229.01 322.70 228.93
  Q 324.22 228.70 324.41 230.16
  Q 324.64 231.87 325.37 233.54
  A 1.49 1.49 0.0 0 0 327.85 233.93
  Q 329.89 231.60 333.26 230.31
  Q 334.62 229.78 335.24 228.80
  C 336.83 226.32 338.17 224.73 341.49 224.74
  Q 342.60 224.74 342.46 225.83
  L 342.30 227.17
  A 2.56 2.54 -74.4 0 0 343.78 229.81
  Q 347.60 231.55 349.36 234.47
  A 1.07 1.06 -42.0 0 0 351.12 234.56
  Q 353.28 231.72 354.83 228.42
  A 1.04 1.04 0.0 0 0 354.17 226.98
  Q 351.08 226.10 349.87 223.25
  A 1.63 1.60 2.4 0 0 349.10 222.43
  Q 346.19 220.99 344.98 217.99
  A 2.16 2.14 -40.3 0 1 345.15 216.03
  Q 346.96 213.12 349.06 210.73
  C 350.75 208.81 351.20 206.73 352.65 204.78
  C 354.24 202.63 354.14 200.06 352.14 198.17
  A 1.78 1.78 0.0 0 1 351.89 195.85
  Q 353.59 193.41 353.03 190.17
  A 0.66 0.65 68.3 0 0 352.02 189.73
  Q 348.29 192.24 344.31 190.34
  Q 343.79 190.08 343.21 190.16
  Q 341.01 190.47 340.18 188.30
  A 1.05 1.05 0.0 0 0 338.56 187.84
  L 336.22 189.65
  Q 335.61 190.12 334.86 189.97
  L 330.08 189.02
  Q 328.27 188.66 328.52 186.83
  L 328.61 186.15
  Q 328.82 184.64 330.27 185.12
  Q 332.33 185.80 334.32 185.21
  Q 342.23 182.87 351.26 181.09
  Q 352.33 180.88 352.15 179.81
  L 350.95 172.48
  Q 350.82 171.71 350.05 171.82
  C 340.86 173.16 331.71 175.16 322.17 175.52
  A 0.86 0.85 82.1 0 0 321.37 176.59
  Q 322.34 180.37 320.66 183.88
  A 1.44 1.44 0.0 0 0 320.64 185.07
  C 321.34 186.71 322.10 188.34 321.48 190.16
  C 320.81 192.18 319.68 195.41 322.07 196.78
  A 1.33 1.33 0.0 0 1 322.65 198.39
  L 320.97 202.85
  Q 320.73 203.48 321.35 203.75
  L 322.50 204.26
  Q 322.99 204.48 323.19 204.98
  Q 323.52 205.78 323.00 206.32
  Q 322.59 206.73 321.94 206.66
  Q 321.24 206.59 320.67 206.36
  A 1.07 1.07 0.0 0 0 319.23 207.55
  Q 320.14 212.38 319.42 216.90
  Q 319.31 217.54 318.81 217.91
  Q 318.25 218.32 317.62 217.91
  Q 317.26 217.68 317.10 217.27
  Z
  M 276.53 189.56
  L 275.45 192.32
  A 1.21 1.21 0.0 0 0 276.80 193.95
  Q 279.81 193.35 282.84 193.97
  Q 283.64 194.13 284.05 193.43
  Q 286.75 188.83 286.42 182.77
  A 1.34 1.34 0.0 0 0 284.97 181.51
  Q 273.91 182.39 263.43 182.23
  C 262.28 182.21 261.02 182.58 259.92 182.94
  A 0.69 0.69 0.0 0 1 259.02 182.23
  L 259.04 181.91
  Q 259.13 180.87 260.16 180.72
  Q 268.98 179.43 278.40 179.83
  A 1.45 1.45 0.0 0 0 279.92 178.47
  L 280.19 174.54
  Q 280.29 173.03 278.79 173.01
  L 261.65 172.82
  Q 261.12 172.81 260.85 172.36
  L 260.04 171.03
  A 1.25 1.22 76.2 0 0 259.09 170.44
  L 252.31 169.87
  A 0.87 0.87 0.0 0 0 251.36 170.70
  L 250.90 180.93
  A 0.97 0.96 89.3 0 1 250.01 181.85
  Q 241.50 182.48 233.00 181.70
  A 0.97 0.96 -81.5 0 0 231.98 182.46
  Q 231.61 184.20 231.63 185.92
  Q 231.76 197.96 231.14 208.98
  Q 230.55 219.28 224.37 227.16
  A 1.00 0.99 -54.3 0 0 224.60 228.60
  L 230.32 232.43
  A 0.94 0.94 0.0 0 0 231.62 232.17
  Q 235.25 226.81 237.62 220.23
  Q 239.11 216.09 239.39 208.66
  Q 239.73 199.46 240.29 190.49
  A 1.35 1.35 0.0 0 1 241.57 189.22
  Q 246.49 188.96 251.51 188.73
  Q 254.21 188.60 256.83 189.44
  Q 259.18 190.19 261.52 189.52
  Q 262.30 189.30 263.06 189.58
  Q 267.14 191.10 273.14 189.89
  C 274.24 189.67 274.92 189.12 275.99 188.91
  Q 276.85 188.75 276.53 189.56
  Z
  M 378.42 192.40
  Q 378.98 193.13 379.12 194.09
  Q 379.23 194.84 379.99 194.78
  Q 380.71 194.73 380.97 194.07
  Q 383.90 186.74 384.60 178.43
  A 0.68 0.68 0.0 0 0 383.74 177.72
  C 381.68 178.29 378.43 179.52 376.36 179.00
  A 0.82 0.81 -75.9 0 1 375.78 178.02
  L 376.98 173.18
  Q 377.32 171.82 375.92 171.72
  L 370.60 171.34
  Q 369.30 171.25 368.92 172.50
  Q 365.24 184.57 360.12 196.56
  Q 359.50 198.02 360.77 198.96
  L 364.07 201.41
  Q 365.61 202.55 366.40 200.80
  Q 366.99 199.49 367.61 198.11
  Q 368.51 196.12 368.42 198.31
  Q 367.97 208.99 367.60 220.85
  C 367.55 222.46 366.98 223.81 366.34 225.24
  Q 366.10 225.77 366.41 226.26
  L 369.27 230.94
  A 1.36 1.36 0.0 0 0 371.26 231.31
  L 382.61 222.68
  Q 383.11 222.30 383.16 221.68
  Q 383.48 217.59 381.62 213.02
  Q 381.37 212.41 381.01 212.95
  Q 379.47 215.23 377.21 216.61
  A 0.47 0.47 0.0 0 1 376.49 216.23
  Q 376.21 209.76 377.01 204.05
  C 377.57 200.11 377.07 196.54 377.80 192.55
  Q 377.94 191.77 378.42 192.40
  Z
  M 415.16 206.73
  L 415.50 207.76
  Q 415.65 208.23 416.12 208.35
  Q 416.89 208.55 417.18 207.83
  C 418.49 204.54 420.90 194.78 418.47 191.58
  Q 417.20 189.89 419.23 190.46
  L 420.59 190.84
  A 1.03 1.03 0.0 0 0 421.90 189.89
  L 422.30 179.28
  A 1.06 1.05 7.0 0 0 421.45 178.20
  Q 415.04 176.90 407.64 176.38
  A 0.59 0.59 0.0 0 1 407.09 175.85
  L 406.75 172.49
  Q 406.61 171.06 405.17 171.15
  L 399.28 171.51
  Q 398.08 171.58 398.50 172.71
  Q 398.86 173.70 398.69 174.60
  Q 398.60 175.06 398.18 175.25
  C 394.13 177.14 390.70 176.70 386.54 176.18
  A 1.17 1.16 -1.6 0 0 385.25 177.54
  C 385.47 178.80 385.80 179.85 385.70 181.17
  Q 385.45 184.51 385.50 187.79
  Q 385.51 188.28 385.79 188.68
  C 386.58 189.80 387.30 190.61 387.28 192.08
  Q 387.23 195.78 386.79 199.16
  C 386.38 202.40 387.47 205.33 387.21 208.55
  Q 386.63 215.66 386.46 223.18
  C 386.41 225.85 385.60 228.42 385.95 231.06
  A 0.75 0.75 0.0 0 0 386.90 231.68
  L 396.74 228.87
  Q 397.23 228.73 397.58 229.10
  Q 400.14 231.77 403.20 231.61
  C 405.91 231.47 409.10 231.89 411.75 231.14
  Q 414.13 230.47 416.63 232.21
  A 1.21 1.21 0.0 0 0 418.52 231.31
  L 420.07 211.04
  A 0.72 0.72 0.0 0 0 419.10 210.31
  Q 416.54 211.26 414.99 209.61
  Q 414.50 209.09 413.85 209.40
  L 412.34 210.11
  Q 411.74 210.38 411.33 209.87
  C 408.62 206.50 404.32 208.29 401.12 210.04
  Q 398.91 211.25 396.10 210.57
  A 1.22 1.22 0.0 0 1 395.18 209.24
  L 395.31 208.22
  A 0.70 0.69 -73.3 0 1 396.31 207.68
  Q 397.19 208.12 398.12 208.16
  A 1.62 1.54 28.1 0 0 399.06 207.90
  Q 404.63 204.21 411.55 207.03
  C 412.42 207.39 413.27 207.03 413.92 206.41
  A 0.76 0.75 59.3 0 1 415.16 206.73
  Z
  M 258.82 193.31
  Q 258.74 192.51 258.94 191.72
  Q 259.07 191.17 258.63 190.82
  Q 257.79 190.16 256.75 190.73
  Q 256.25 191.01 255.69 190.84
  L 253.27 190.09
  Q 251.80 189.64 251.60 191.16
  Q 251.48 192.07 250.94 192.75
  Q 250.58 193.20 250.00 193.22
  C 245.35 193.34 239.39 192.21 241.44 199.65
  Q 241.60 200.21 242.15 200.39
  L 245.25 201.44
  Q 245.77 201.61 246.25 201.38
  L 249.17 199.99
  A 1.27 1.27 0.0 0 1 250.91 200.71
  L 252.80 205.98
  A 2.49 2.48 79.7 0 0 255.18 207.63
  Q 257.04 207.59 258.74 208.20
  C 260.99 209.02 263.58 208.37 265.92 208.11
  C 269.59 207.69 272.81 209.34 276.42 209.20
  C 280.29 209.05 283.05 202.40 283.54 199.17
  Q 283.66 198.32 282.82 198.16
  L 276.59 196.94
  A 1.21 1.21 0.0 0 0 275.25 197.68
  L 273.60 201.81
  Q 273.41 202.28 272.91 202.35
  Q 268.35 202.94 264.56 201.70
  C 262.96 201.18 261.40 201.36 259.93 202.13
  A 0.80 0.80 0.0 0 1 258.84 201.06
  C 260.22 198.37 267.73 199.16 270.34 199.65
  A 1.44 1.44 0.0 0 0 272.04 198.19
  L 271.92 193.86
  A 0.91 0.91 0.0 0 0 270.65 193.05
  C 268.50 193.97 266.26 193.95 264.01 193.28
  Q 261.71 192.60 259.70 193.76
  Q 258.90 194.23 258.82 193.31
  Z
  M 261.62 217.40
  Q 262.60 217.69 262.54 218.71
  Q 262.23 224.21 263.72 230.04
  A 1.28 1.27 1.4 0 0 264.58 230.93
  C 266.96 231.64 269.52 233.01 272.02 232.59
  Q 276.24 231.89 280.54 231.24
  Q 282.98 230.88 284.11 229.36
  Q 286.33 226.36 286.98 220.27
  A 0.81 0.81 0.0 0 0 286.44 219.42
  L 280.84 217.48
  Q 279.41 216.98 278.99 218.44
  L 277.68 223.08
  A 1.76 1.75 4.7 0 1 276.18 224.35
  L 272.12 224.80
  A 1.40 1.39 -2.0 0 1 270.57 223.36
  L 271.04 211.74
  A 1.64 1.63 -4.7 0 0 269.07 210.07
  Q 262.81 211.38 257.93 209.83
  Q 255.91 209.19 253.85 209.47
  Q 250.46 209.91 246.87 209.23
  A 1.47 1.46 -84.5 0 0 245.13 210.67
  Q 245.14 214.81 244.67 218.74
  C 244.21 222.69 241.05 224.81 237.97 226.69
  Q 236.33 227.68 237.62 229.11
  L 240.31 232.09
  A 2.38 2.37 51.7 0 0 243.43 232.46
  Q 248.73 228.79 251.13 224.91
  Q 252.68 222.40 253.20 217.84
  Q 253.40 216.07 255.18 216.19
  Q 258.17 216.38 261.62 217.40
  Z
  M 166.02 280.11
  A 0.67 0.67 0.0 0 1 166.29 279.11
  Q 169.58 277.63 171.54 274.79
  Q 171.91 274.25 171.75 273.61
  Q 171.09 270.89 171.92 268.48
  C 172.84 265.80 171.96 262.95 170.99 260.39
  C 169.49 256.45 163.65 254.50 159.94 254.45
  Q 153.18 254.37 145.52 254.17
  Q 144.14 254.14 144.20 255.51
  Q 144.49 263.00 143.97 271.49
  Q 143.36 281.44 143.78 292.32
  A 0.55 0.54 -12.2 0 0 144.53 292.80
  L 147.83 291.45
  Q 148.34 291.24 148.84 291.45
  L 150.75 292.23
  A 0.79 0.78 -74.9 0 0 151.82 291.61
  Q 152.58 286.33 152.16 280.61
  Q 152.12 279.94 152.79 279.89
  C 155.30 279.72 157.16 279.82 158.60 282.28
  Q 162.37 288.73 166.08 294.30
  A 1.54 1.53 -16.0 0 0 167.32 294.98
  L 175.93 295.14
  Q 176.69 295.16 176.40 294.46
  Q 176.06 293.67 175.56 293.01
  Q 170.78 286.66 166.02 280.11
  Z
  M 179.50 266.08
  C 181.47 267.49 180.46 272.42 180.00 274.24
  Q 179.55 276.00 179.79 277.82
  Q 180.37 282.00 180.33 285.95
  C 180.32 287.39 181.03 288.70 181.39 290.09
  Q 181.74 291.47 182.86 292.30
  C 188.00 296.11 197.63 296.54 203.64 295.54
  Q 214.50 293.74 216.20 282.47
  Q 216.70 279.10 216.39 276.26
  C 215.83 271.10 217.15 266.27 216.00 261.21
  Q 215.41 258.64 215.57 255.58
  A 0.58 0.57 1.9 0 0 215.00 254.98
  L 205.96 254.97
  A 0.58 0.58 0.0 0 0 205.47 255.86
  Q 207.63 259.34 204.27 261.73
  A 1.34 1.32 73.3 0 0 203.72 262.77
  Q 203.63 265.74 203.77 268.77
  C 203.86 270.63 205.33 271.55 205.31 273.56
  Q 205.25 278.29 205.17 282.72
  Q 205.09 287.05 200.90 287.84
  C 196.83 288.60 188.41 289.30 188.57 282.96
  C 188.65 279.94 189.54 276.92 189.20 273.99
  C 188.78 270.48 189.38 267.02 189.03 263.50
  Q 188.70 260.20 189.22 255.27
  Q 189.23 255.12 189.09 255.09
  Q 185.03 254.43 181.02 254.67
  Q 180.89 254.68 180.86 254.80
  Q 179.60 259.56 178.65 263.98
  Q 178.37 265.27 179.50 266.08
  Z
  M 235.60 267.45
  A 0.38 0.38 0.0 0 1 235.23 266.88
  Q 236.48 264.82 236.65 262.61
  Q 236.71 261.82 237.48 261.60
  Q 241.56 260.43 244.79 261.20
  Q 247.28 261.79 249.82 262.43
  A 0.74 0.73 -8.0 0 0 250.64 261.35
  C 248.89 258.40 249.38 256.07 245.19 255.32
  C 240.35 254.46 229.19 253.59 226.05 258.80
  Q 225.78 259.24 226.02 259.70
  Q 226.82 261.25 226.12 263.02
  Q 225.92 263.52 226.07 264.03
  Q 226.86 266.73 226.23 269.45
  A 1.63 1.61 37.7 0 0 226.38 270.56
  Q 228.08 273.72 231.05 274.57
  Q 235.96 275.97 241.15 277.67
  C 242.67 278.17 244.12 278.25 245.67 278.53
  A 2.28 2.27 23.6 0 1 247.09 282.14
  L 244.39 285.70
  A 2.69 2.67 20.6 0 1 242.05 286.75
  C 238.30 286.46 234.53 286.74 230.79 286.31
  Q 228.03 285.99 225.15 286.66
  A 1.91 1.91 0.0 0 0 223.71 288.91
  Q 224.20 291.25 223.19 293.42
  A 0.62 0.62 0.0 0 0 223.54 294.26
  Q 227.83 295.77 231.97 295.47
  C 236.68 295.13 241.43 294.87 245.98 294.00
  Q 250.23 293.18 253.02 289.77
  A 1.26 1.24 -25.5 0 0 253.31 288.97
  L 253.28 283.35
  Q 253.28 282.61 253.81 282.09
  L 255.92 280.01
  A 1.56 1.55 57.0 0 0 256.27 278.33
  L 254.84 274.78
  A 1.00 0.99 84.7 0 0 254.13 274.18
  Q 248.55 272.98 242.56 269.08
  Q 239.34 266.98 235.60 267.45
  Z
  M 270.55 277.76
  Q 271.22 277.40 272.00 277.51
  Q 277.31 278.25 282.27 278.36
  A 0.35 0.35 0.0 0 1 282.61 278.72
  L 282.23 295.73
  Q 282.21 296.51 282.99 296.52
  L 290.32 296.60
  Q 291.00 296.60 291.01 295.93
  L 291.85 256.82
  A 0.81 0.80 -88.6 0 0 291.07 255.99
  L 283.47 255.79
  Q 282.72 255.78 282.72 256.53
  L 282.71 270.47
  A 0.56 0.56 0.0 0 1 282.16 271.03
  Q 277.25 271.12 272.24 270.17
  A 1.86 1.85 -7.0 0 1 270.92 269.15
  C 268.90 264.86 266.76 261.41 267.21 256.39
  A 0.76 0.76 0.0 0 0 266.45 255.57
  L 258.59 255.62
  Q 258.03 255.63 257.93 256.19
  C 257.41 259.33 261.01 259.98 260.78 262.98
  Q 260.69 264.28 260.79 265.57
  A 2.77 2.76 -0.8 0 0 263.40 268.10
  L 265.81 268.23
  Q 266.62 268.27 266.46 269.07
  C 266.08 271.06 266.49 273.62 264.08 274.49
  Q 263.52 274.68 263.31 275.23
  L 261.60 279.54
  Q 261.32 280.24 261.85 280.79
  L 262.58 281.54
  Q 262.94 281.91 262.88 282.42
  Q 262.41 286.92 264.49 290.07
  Q 264.77 290.48 264.73 290.98
  Q 264.63 292.12 263.96 293.04
  A 0.85 0.84 -71.0 0 0 264.61 294.38
  L 269.86 294.58
  A 0.91 0.91 0.0 0 0 270.70 293.24
  C 270.08 292.08 270.10 290.72 270.84 289.63
  Q 272.61 287.00 273.40 283.86
  Q 274.35 280.06 270.60 278.57
  A 0.45 0.45 0.0 0 1 270.55 277.76
  Z
  M 325.22 282.75
  Q 326.64 282.57 326.02 283.87
  C 324.78 286.47 327.43 287.82 329.48 288.30
  Q 330.25 288.47 330.23 289.27
  Q 330.15 292.32 332.72 295.92
  C 333.85 297.50 334.96 299.08 337.21 298.70
  Q 341.51 297.97 345.94 297.86
  Q 348.66 297.79 346.46 296.21
  Q 342.56 293.40 338.08 291.23
  A 0.68 0.68 0.0 0 1 337.94 290.09
  C 339.87 288.48 337.82 284.33 336.90 282.67
  A 0.91 0.91 0.0 0 1 337.45 281.36
  C 344.53 279.40 346.11 271.28 344.27 265.01
  C 340.58 252.48 325.59 258.22 316.40 256.18
  A 0.72 0.72 0.0 0 0 315.53 256.88
  Q 315.54 265.47 315.41 275.36
  Q 315.36 279.39 312.42 283.03
  Q 311.91 283.67 311.88 284.46
  Q 311.84 285.61 313.08 285.73
  A 0.84 0.84 0.0 0 1 313.58 287.17
  L 311.78 288.92
  A 2.00 2.00 0.0 0 0 311.70 291.71
  C 312.82 292.93 312.44 295.07 312.58 296.65
  Q 312.67 297.71 313.74 297.72
  L 321.02 297.79
  A 1.24 1.24 0.0 0 0 322.28 296.51
  Q 322.18 292.56 322.71 288.21
  C 322.86 286.99 322.49 285.75 322.36 284.52
  A 1.50 1.42 -6.7 0 1 323.66 282.96
  Q 323.78 282.94 325.22 282.75
  Z
  M 380.18 281.01
  C 379.89 273.87 380.37 266.04 389.24 264.96
  C 394.17 264.35 397.94 264.98 402.60 265.60
  Q 404.82 265.90 403.37 264.19
  Q 401.67 262.19 401.66 259.61
  A 2.12 2.11 -85.1 0 0 399.92 257.54
  Q 392.54 256.21 385.08 257.27
  C 371.20 259.23 369.02 271.76 370.32 283.49
  C 372.06 299.33 387.58 299.49 400.06 297.42
  Q 400.77 297.30 400.64 296.59
  Q 400.02 293.35 401.39 290.27
  A 0.42 0.42 0.0 0 0 400.94 289.69
  C 395.88 290.52 389.28 291.56 384.52 289.44
  Q 380.45 287.62 380.18 281.01
  Z
  M 357.70 300.75
  Q 358.48 301.29 358.14 302.25
  Q 357.08 305.22 359.63 303.37
  Q 360.92 302.44 361.05 300.92
  C 361.16 299.66 361.79 299.04 362.42 298.06
  Q 362.72 297.57 362.69 297.00
  Q 362.32 290.94 362.11 285.14
  C 361.99 281.76 363.53 277.71 363.05 273.63
  Q 362.16 265.93 362.30 258.61
  Q 362.34 257.02 360.74 257.08
  L 357.53 257.22
  Q 355.58 257.30 356.06 259.18
  Q 356.47 260.82 355.50 262.04
  C 352.19 266.22 353.68 271.52 354.53 276.39
  A 2.19 2.18 -37.5 0 1 354.36 277.66
  Q 353.48 279.52 353.32 281.57
  Q 352.67 289.90 352.83 299.98
  Q 352.84 300.81 353.44 301.35
  Q 353.95 301.81 354.69 301.61
  Q 355.01 301.53 355.18 301.24
  Q 356.09 299.63 357.70 300.75
  Z
  M 417.76 267.33
  Q 421.46 266.74 424.13 268.25
  A 3.28 3.27 45.1 0 0 427.33 268.26
  Q 428.93 267.37 430.63 267.06
  Q 431.82 266.85 431.84 265.64
  L 431.95 259.11
  Q 431.97 257.75 430.61 257.75
  L 409.52 257.78
  A 0.70 0.69 79.8 0 0 408.87 258.72
  Q 409.99 261.67 410.77 264.91
  C 410.97 265.73 410.73 266.62 409.89 266.96
  C 408.02 267.71 407.19 269.88 407.54 271.73
  Q 408.18 275.08 407.83 278.42
  C 407.59 280.69 408.26 282.74 408.31 284.99
  C 408.32 285.81 408.96 286.63 409.83 286.64
  A 0.65 0.65 0.0 0 1 410.31 287.73
  Q 407.75 290.56 410.15 292.75
  A 1.06 1.05 -47.9 0 1 410.22 294.25
  L 407.83 296.84
  A 0.61 0.61 0.0 0 0 407.97 297.78
  Q 408.71 298.22 409.56 298.29
  Q 419.29 299.06 428.66 300.85
  A 1.55 1.54 15.1 0 0 430.41 299.85
  Q 431.50 296.74 431.41 292.54
  Q 431.40 292.01 430.87 292.01
  C 427.39 292.02 425.56 294.77 421.90 293.35
  C 420.53 292.82 418.94 292.81 417.53 292.81
  A 0.91 0.91 0.0 0 1 416.64 291.70
  Q 417.44 288.13 417.10 285.00
  A 0.64 0.64 0.0 0 1 417.99 284.35
  Q 419.26 284.93 420.63 284.30
  C 423.16 283.14 426.06 283.59 428.82 283.46
  A 1.65 1.65 0.0 0 0 430.38 281.99
  L 431.04 276.00
  Q 431.13 275.15 430.35 275.51
  Q 424.80 278.08 418.25 275.78
  Q 417.79 275.62 417.61 275.17
  Q 416.15 271.48 417.21 267.82
  Q 417.33 267.40 417.76 267.33
  Z"
/>
<path fill="#ffed00" d="
  M 185.33 181.80
  Q 188.71 181.30 192.01 181.50
  A 1.19 1.19 0.0 0 1 192.77 181.82
  Q 193.93 182.87 195.40 182.59
  Q 196.06 182.46 195.68 181.91
  Q 193.74 179.04 193.33 175.08
  A 1.39 1.39 0.0 0 1 193.78 173.91
  L 198.82 169.36
  A 1.13 1.12 51.7 0 1 200.50 169.56
  Q 203.51 173.95 207.93 177.06
  A 1.91 1.86 -78.2 0 1 208.70 178.27
  Q 208.81 178.92 208.56 179.52
  Q 208.32 180.11 208.96 180.11
  L 217.33 180.10
  Q 218.32 180.10 218.30 181.08
  L 218.23 188.25
  Q 218.22 189.17 217.30 189.20
  Q 208.48 189.48 199.73 190.61
  C 198.20 190.81 197.03 190.54 195.60 190.05
  Q 194.98 189.84 194.91 190.49
  L 193.26 206.02
  Q 193.10 207.59 194.13 206.40
  C 195.23 205.15 196.24 203.82 197.47 202.71
  Q 202.38 198.27 205.83 193.05
  Q 206.79 191.60 208.26 192.52
  L 212.87 195.41
  Q 214.31 196.30 213.33 197.68
  Q 205.52 208.59 195.80 216.12
  Q 193.85 217.64 194.06 220.35
  Q 194.10 220.93 194.61 221.21
  C 196.31 222.15 197.85 223.53 199.96 223.22
  Q 204.09 222.62 207.74 221.40
  C 210.95 220.32 210.58 214.33 210.79 211.63
  Q 210.91 210.18 212.26 210.72
  L 218.42 213.22
  Q 219.21 213.54 219.19 214.39
  Q 219.09 220.74 216.82 226.20
  C 215.97 228.23 214.10 229.36 212.00 229.63
  Q 207.03 230.27 201.90 230.99
  Q 199.41 231.34 196.99 230.90
  Q 194.31 230.41 191.85 230.81
  Q 191.20 230.91 190.75 230.43
  Q 189.19 228.75 186.83 228.38
  A 1.27 1.27 0.0 0 1 185.83 227.54
  Q 185.30 226.00 185.46 224.31
  Q 185.63 222.51 184.28 223.72
  C 182.02 225.73 179.75 226.20 176.88 227.39
  Q 175.71 227.88 174.91 226.93
  Q 173.01 224.67 171.73 222.13
  Q 171.41 221.48 170.93 222.03
  L 163.63 230.52
  Q 162.60 231.73 161.47 230.60
  L 156.37 225.51
  Q 155.45 224.58 156.42 223.70
  Q 164.91 216.02 170.38 204.90
  Q 173.09 199.37 173.36 196.12
  Q 173.59 193.21 174.11 190.28
  Q 174.23 189.57 173.52 189.71
  C 171.93 190.02 170.07 189.83 168.51 189.38
  C 166.52 188.81 163.76 190.76 161.81 191.51
  A 0.98 0.97 -14.3 0 1 160.49 190.73
  Q 159.96 186.76 160.30 182.60
  C 160.51 179.87 163.63 179.59 165.33 181.03
  A 2.62 2.61 -28.5 0 0 167.33 181.62
  L 174.78 180.67
  A 1.46 1.45 88.8 0 0 176.04 179.35
  L 176.75 171.15
  A 1.26 1.26 0.0 0 1 178.48 170.09
  Q 181.11 171.14 183.99 171.17
  Q 185.09 171.17 185.00 172.27
  Q 184.77 175.27 185.19 178.32
  C 185.31 179.21 185.17 180.34 184.84 181.20
  Q 184.57 181.92 185.33 181.80
  Z
  M 179.15 207.68
  Q 177.07 212.81 173.33 218.44
  A 0.35 0.35 0.0 0 0 173.46 218.95
  Q 173.70 219.07 173.93 218.93
  Q 177.85 216.42 181.73 214.71
  C 184.07 213.68 185.63 212.16 185.77 209.51
  C 186.08 203.52 186.44 197.39 185.23 191.87
  Q 184.97 190.70 183.99 191.39
  L 183.62 191.64
  A 2.63 2.61 72.0 0 0 182.51 193.84
  C 182.61 199.01 181.47 201.95 179.15 207.68
  Z"
/>
<path fill="#ffed00" d="
  M 317.62 217.91
  Q 318.25 218.32 318.81 217.91
  Q 319.31 217.54 319.42 216.90
  Q 320.14 212.38 319.23 207.55
  A 1.07 1.07 0.0 0 1 320.67 206.36
  Q 321.24 206.59 321.94 206.66
  Q 322.59 206.73 323.00 206.32
  Q 323.52 205.78 323.19 204.98
  Q 322.99 204.48 322.50 204.26
  L 321.35 203.75
  Q 320.73 203.48 320.97 202.85
  L 322.65 198.39
  A 1.33 1.33 0.0 0 0 322.07 196.78
  C 319.68 195.41 320.81 192.18 321.48 190.16
  C 322.10 188.34 321.34 186.71 320.64 185.07
  A 1.44 1.44 0.0 0 1 320.66 183.88
  Q 322.34 180.37 321.37 176.59
  A 0.86 0.85 82.1 0 1 322.17 175.52
  C 331.71 175.16 340.86 173.16 350.05 171.82
  Q 350.82 171.71 350.95 172.48
  L 352.15 179.81
  Q 352.33 180.88 351.26 181.09
  Q 342.23 182.87 334.32 185.21
  Q 332.33 185.80 330.27 185.12
  Q 328.82 184.64 328.61 186.15
  L 328.52 186.83
  Q 328.27 188.66 330.08 189.02
  L 334.86 189.97
  Q 335.61 190.12 336.22 189.65
  L 338.56 187.84
  A 1.05 1.05 0.0 0 1 340.18 188.30
  Q 341.01 190.47 343.21 190.16
  Q 343.79 190.08 344.31 190.34
  Q 348.29 192.24 352.02 189.73
  A 0.66 0.65 68.3 0 1 353.03 190.17
  Q 353.59 193.41 351.89 195.85
  A 1.78 1.78 0.0 0 0 352.14 198.17
  C 354.14 200.06 354.24 202.63 352.65 204.78
  C 351.20 206.73 350.75 208.81 349.06 210.73
  Q 346.96 213.12 345.15 216.03
  A 2.16 2.14 -40.3 0 0 344.98 217.99
  Q 346.19 220.99 349.10 222.43
  A 1.63 1.60 2.4 0 1 349.87 223.25
  Q 351.08 226.10 354.17 226.98
  A 1.04 1.04 0.0 0 1 354.83 228.42
  Q 353.28 231.72 351.12 234.56
  A 1.07 1.06 -42.0 0 1 349.36 234.47
  Q 347.60 231.55 343.78 229.81
  A 2.56 2.54 -74.4 0 1 342.30 227.17
  L 342.46 225.83
  Q 342.60 224.74 341.49 224.74
  C 338.17 224.73 336.83 226.32 335.24 228.80
  Q 334.62 229.78 333.26 230.31
  Q 329.89 231.60 327.85 233.93
  A 1.49 1.49 0.0 0 1 325.37 233.54
  Q 324.64 231.87 324.41 230.16
  Q 324.22 228.70 322.70 228.93
  Q 322.20 229.01 322.12 229.51
  L 321.85 231.27
  A 1.66 1.66 0.0 0 1 319.47 232.50
  L 312.81 229.17
  A 1.17 1.17 0.0 0 1 312.64 227.18
  Q 314.12 226.08 314.90 224.83
  Q 315.74 223.49 314.34 224.23
  Q 309.59 226.71 305.16 229.90
  A 0.95 0.95 0.0 0 1 303.78 229.61
  L 300.38 223.72
  A 1.26 1.25 -44.8 0 1 300.39 222.46
  C 302.51 218.80 301.21 215.07 302.44 211.28
  Q 302.96 209.65 302.33 207.83
  Q 302.12 207.21 302.29 206.58
  Q 302.78 204.77 302.15 203.13
  Q 301.94 202.57 302.21 202.03
  L 303.53 199.37
  A 1.55 1.54 -49.2 0 0 303.42 197.80
  L 303.12 197.37
  Q 302.53 196.52 302.19 197.50
  C 301.57 199.35 300.02 201.71 297.85 199.64
  Q 295.55 197.46 293.45 195.26
  A 1.40 1.39 36.7 0 1 293.21 193.66
  C 294.91 190.30 296.75 186.98 299.00 183.99
  Q 302.64 179.15 302.35 171.90
  Q 302.25 169.37 304.71 169.99
  L 309.36 171.17
  A 2.18 2.17 -89.3 0 1 310.93 172.78
  Q 311.49 175.26 311.25 178.03
  Q 311.20 178.62 311.78 178.67
  Q 312.39 178.72 312.96 178.47
  A 2.17 2.17 0.0 0 1 314.60 178.42
  Q 316.73 179.22 319.05 179.57
  A 1.60 1.60 0.0 0 1 320.18 181.98
  L 318.98 183.96
  Q 318.52 184.70 319.19 185.26
  C 321.58 187.24 320.65 189.22 318.54 190.78
  Q 318.10 191.11 318.02 191.65
  L 317.72 193.79
  A 2.72 2.71 -83.6 0 1 314.82 196.11
  Q 312.94 195.96 311.10 195.25
  A 0.95 0.94 -78.6 0 1 310.49 194.32
  Q 310.68 190.61 313.68 189.21
  Q 316.58 187.87 313.60 186.73
  C 309.18 185.04 305.20 189.50 304.31 193.33
  Q 304.17 193.89 304.74 193.98
  Q 307.26 194.38 309.29 195.53
  Q 309.79 195.81 309.80 196.38
  Q 309.82 198.40 311.06 199.79
  C 312.42 201.31 312.34 203.48 310.20 204.27
  Q 308.15 205.03 309.90 206.33
  Q 310.75 206.96 311.26 207.97
  Q 313.35 212.16 309.60 213.77
  Q 308.69 214.15 309.02 215.09
  L 309.13 215.41
  A 0.66 0.66 0.0 0 0 309.94 215.82
  C 312.35 215.10 315.96 214.32 317.10 217.27
  Q 317.26 217.68 317.62 217.91
  Z
  M 340.49 208.60
  A 1.65 1.65 0.0 0 1 341.31 205.94
  L 343.60 205.31
  A 1.57 1.56 -32.1 0 0 344.22 202.62
  Q 343.51 202.01 343.07 201.26
  A 0.93 0.92 -24.6 0 1 343.58 199.90
  Q 344.41 199.64 344.70 198.91
  Q 345.10 197.92 344.09 198.23
  Q 341.67 198.95 339.70 197.38
  A 2.68 2.67 -40.3 0 0 336.71 197.14
  Q 333.43 198.97 329.95 197.59
  A 0.52 0.52 0.0 0 0 329.25 198.00
  Q 329.07 199.29 329.54 200.18
  Q 329.98 201.00 330.88 200.56
  Q 332.39 199.83 333.88 199.87
  A 1.84 1.84 0.0 0 1 335.65 201.96
  C 335.07 206.21 337.57 208.03 340.01 210.83
  Q 340.87 211.81 341.13 210.54
  Q 341.33 209.58 340.49 208.60
  Z
  M 325.87 219.38
  Q 325.79 221.53 324.59 223.54
  Q 323.49 225.37 325.47 224.56
  Q 331.12 222.21 332.71 217.87
  A 1.55 1.54 -87.0 0 1 333.78 216.90
  L 334.83 216.63
  Q 335.64 216.42 335.14 215.75
  Q 333.25 213.22 331.98 210.18
  C 331.23 208.39 329.36 207.79 327.86 206.77
  Q 327.19 206.32 327.26 207.12
  C 327.55 210.62 328.63 213.38 326.67 216.66
  Q 325.93 217.89 325.87 219.38
  Z"
/>
<path fill="#ffed00" d="
  M 275.99 188.91
  C 274.92 189.12 274.24 189.67 273.14 189.89
  Q 267.14 191.10 263.06 189.58
  Q 262.30 189.30 261.52 189.52
  Q 259.18 190.19 256.83 189.44
  Q 254.21 188.60 251.51 188.73
  Q 246.49 188.96 241.57 189.22
  A 1.35 1.35 0.0 0 0 240.29 190.49
  Q 239.73 199.46 239.39 208.66
  Q 239.11 216.09 237.62 220.23
  Q 235.25 226.81 231.62 232.17
  A 0.94 0.94 0.0 0 1 230.32 232.43
  L 224.60 228.60
  A 1.00 0.99 -54.3 0 1 224.37 227.16
  Q 230.55 219.28 231.14 208.98
  Q 231.76 197.96 231.63 185.92
  Q 231.61 184.20 231.98 182.46
  A 0.97 0.96 -81.5 0 1 233.00 181.70
  Q 241.50 182.48 250.01 181.85
  A 0.97 0.96 89.3 0 0 250.90 180.93
  L 251.36 170.70
  A 0.87 0.87 0.0 0 1 252.31 169.87
  L 259.09 170.44
  A 1.25 1.22 76.2 0 1 260.04 171.03
  L 260.85 172.36
  Q 261.12 172.81 261.65 172.82
  L 278.79 173.01
  Q 280.29 173.03 280.19 174.54
  L 279.92 178.47
  A 1.45 1.45 0.0 0 1 278.40 179.83
  Q 268.98 179.43 260.16 180.72
  Q 259.13 180.87 259.04 181.91
  L 259.02 182.23
  A 0.69 0.69 0.0 0 0 259.92 182.94
  C 261.02 182.58 262.28 182.21 263.43 182.23
  Q 273.91 182.39 284.97 181.51
  A 1.34 1.34 0.0 0 1 286.42 182.77
  Q 286.75 188.83 284.05 193.43
  Q 283.64 194.13 282.84 193.97
  Q 279.81 193.35 276.80 193.95
  A 1.21 1.21 0.0 0 1 275.45 192.32
  L 276.53 189.56
  Q 276.85 188.75 275.99 188.91
  Z"
/>
<path fill="#ffed00" d="
  M 377.80 192.55
  C 377.07 196.54 377.57 200.11 377.01 204.05
  Q 376.21 209.76 376.49 216.23
  A 0.47 0.47 0.0 0 0 377.21 216.61
  Q 379.47 215.23 381.01 212.95
  Q 381.37 212.41 381.62 213.02
  Q 383.48 217.59 383.16 221.68
  Q 383.11 222.30 382.61 222.68
  L 371.26 231.31
  A 1.36 1.36 0.0 0 1 369.27 230.94
  L 366.41 226.26
  Q 366.10 225.77 366.34 225.24
  C 366.98 223.81 367.55 222.46 367.60 220.85
  Q 367.97 208.99 368.42 198.31
  Q 368.51 196.12 367.61 198.11
  Q 366.99 199.49 366.40 200.80
  Q 365.61 202.55 364.07 201.41
  L 360.77 198.96
  Q 359.50 198.02 360.12 196.56
  Q 365.24 184.57 368.92 172.50
  Q 369.30 171.25 370.60 171.34
  L 375.92 171.72
  Q 377.32 171.82 376.98 173.18
  L 375.78 178.02
  A 0.82 0.81 -75.9 0 0 376.36 179.00
  C 378.43 179.52 381.68 178.29 383.74 177.72
  A 0.68 0.68 0.0 0 1 384.60 178.43
  Q 383.90 186.74 380.97 194.07
  Q 380.71 194.73 379.99 194.78
  Q 379.23 194.84 379.12 194.09
  Q 378.98 193.13 378.42 192.40
  Q 377.94 191.77 377.80 192.55
  Z
  M 377.17 186.90
  A 0.92 0.92 0.0 0 0 375.97 185.80
  L 372.74 186.96
  A 0.92 0.92 0.0 0 0 372.19 187.50
  L 370.34 192.39
  A 0.92 0.92 0.0 0 0 371.49 193.59
  L 375.30 192.32
  A 0.92 0.92 0.0 0 0 375.90 191.68
  L 377.17 186.90
  Z"
/>
<path fill="#ffed00" d="
  M 415.16 206.73
  A 0.76 0.75 59.3 0 0 413.92 206.41
  C 413.27 207.03 412.42 207.39 411.55 207.03
  Q 404.63 204.21 399.06 207.90
  A 1.62 1.54 28.1 0 1 398.12 208.16
  Q 397.19 208.12 396.31 207.68
  A 0.70 0.69 -73.3 0 0 395.31 208.22
  L 395.18 209.24
  A 1.22 1.22 0.0 0 0 396.10 210.57
  Q 398.91 211.25 401.12 210.04
  C 404.32 208.29 408.62 206.50 411.33 209.87
  Q 411.74 210.38 412.34 210.11
  L 413.85 209.40
  Q 414.50 209.09 414.99 209.61
  Q 416.54 211.26 419.10 210.31
  A 0.72 0.72 0.0 0 1 420.07 211.04
  L 418.52 231.31
  A 1.21 1.21 0.0 0 1 416.63 232.21
  Q 414.13 230.47 411.75 231.14
  C 409.10 231.89 405.91 231.47 403.20 231.61
  Q 400.14 231.77 397.58 229.10
  Q 397.23 228.73 396.74 228.87
  L 386.90 231.68
  A 0.75 0.75 0.0 0 1 385.95 231.06
  C 385.60 228.42 386.41 225.85 386.46 223.18
  Q 386.63 215.66 387.21 208.55
  C 387.47 205.33 386.38 202.40 386.79 199.16
  Q 387.23 195.78 387.28 192.08
  C 387.30 190.61 386.58 189.80 385.79 188.68
  Q 385.51 188.28 385.50 187.79
  Q 385.45 184.51 385.70 181.17
  C 385.80 179.85 385.47 178.80 385.25 177.54
  A 1.17 1.16 -1.6 0 1 386.54 176.18
  C 390.70 176.70 394.13 177.14 398.18 175.25
  Q 398.60 175.06 398.69 174.60
  Q 398.86 173.70 398.50 172.71
  Q 398.08 171.58 399.28 171.51
  L 405.17 171.15
  Q 406.61 171.06 406.75 172.49
  L 407.09 175.85
  A 0.59 0.59 0.0 0 0 407.64 176.38
  Q 415.04 176.90 421.45 178.20
  A 1.06 1.05 7.0 0 1 422.30 179.28
  L 421.90 189.89
  A 1.03 1.03 0.0 0 1 420.59 190.84
  L 419.23 190.46
  Q 417.20 189.89 418.47 191.58
  C 420.90 194.78 418.49 204.54 417.18 207.83
  Q 416.89 208.55 416.12 208.35
  Q 415.65 208.23 415.50 207.76
  L 415.16 206.73
  Z
  M 414.86 185.70
  L 415.05 183.74
  A 1.60 1.59 -78.8 0 0 413.94 182.07
  Q 410.02 180.88 406.51 182.81
  A 1.87 1.84 -56.7 0 1 405.49 183.03
  Q 399.62 182.62 393.44 184.82
  Q 392.75 185.07 392.66 185.79
  L 392.49 187.14
  Q 392.40 187.86 393.13 187.80
  L 402.68 186.88
  Q 403.54 186.80 404.14 187.40
  Q 404.89 188.16 405.93 187.90
  Q 406.49 187.76 406.93 187.40
  Q 409.76 185.05 413.00 186.72
  Q 414.67 187.58 414.86 185.70
  Z
  M 399.22 194.46
  Q 399.44 193.47 398.38 192.75
  A 1.32 1.32 0.0 0 0 396.57 193.05
  Q 394.56 195.76 394.82 199.31
  Q 394.85 199.78 395.29 199.94
  Q 399.39 201.51 402.03 198.80
  Q 402.45 198.36 402.92 198.75
  Q 405.08 200.54 408.21 200.24
  Q 408.86 200.18 409.21 199.62
  Q 410.33 197.80 410.85 195.34
  A 0.59 0.59 0.0 0 0 409.95 194.72
  Q 405.58 197.57 403.04 194.13
  Q 402.72 193.70 402.24 193.94
  L 400.01 195.07
  A 0.55 0.55 0.0 0 1 399.22 194.46
  Z
  M 407.34 223.78
  Q 410.46 225.24 411.10 222.07
  Q 411.55 219.78 411.95 217.12
  A 0.57 0.56 11.9 0 0 411.53 216.49
  C 410.70 216.27 409.60 216.74 408.68 216.73
  Q 402.54 216.67 396.76 216.58
  A 1.63 1.62 -88.9 0 0 395.11 218.18
  Q 395.08 219.75 395.64 221.41
  Q 395.80 221.90 396.24 222.16
  Q 398.59 223.55 400.80 222.76
  C 402.87 222.02 405.41 222.87 407.34 223.78
  Z"
/>
<path fill="#c3191b" d="
  M 413.00 186.72
  Q 409.76 185.05 406.93 187.40
  Q 406.49 187.76 405.93 187.90
  Q 404.89 188.16 404.14 187.40
  Q 403.54 186.80 402.68 186.88
  L 393.13 187.80
  Q 392.40 187.86 392.49 187.14
  L 392.66 185.79
  Q 392.75 185.07 393.44 184.82
  Q 399.62 182.62 405.49 183.03
  A 1.87 1.84 -56.7 0 0 406.51 182.81
  Q 410.02 180.88 413.94 182.07
  A 1.60 1.59 -78.8 0 1 415.05 183.74
  L 414.86 185.70
  Q 414.67 187.58 413.00 186.72
  Z"
/>
<path fill="#c3191b" d="
  M 377.17 186.90
  L 375.90 191.68
  A 0.92 0.92 0.0 0 1 375.30 192.32
  L 371.49 193.59
  A 0.92 0.92 0.0 0 1 370.34 192.39
  L 372.19 187.50
  A 0.92 0.92 0.0 0 1 372.74 186.96
  L 375.97 185.80
  A 0.92 0.92 0.0 0 1 377.17 186.90
  Z"
/>
<path fill="#ffed00" d="
  M 259.70 193.76
  Q 261.71 192.60 264.01 193.28
  C 266.26 193.95 268.50 193.97 270.65 193.05
  A 0.91 0.91 0.0 0 1 271.92 193.86
  L 272.04 198.19
  A 1.44 1.44 0.0 0 1 270.34 199.65
  C 267.73 199.16 260.22 198.37 258.84 201.06
  A 0.80 0.80 0.0 0 0 259.93 202.13
  C 261.40 201.36 262.96 201.18 264.56 201.70
  Q 268.35 202.94 272.91 202.35
  Q 273.41 202.28 273.60 201.81
  L 275.25 197.68
  A 1.21 1.21 0.0 0 1 276.59 196.94
  L 282.82 198.16
  Q 283.66 198.32 283.54 199.17
  C 283.05 202.40 280.29 209.05 276.42 209.20
  C 272.81 209.34 269.59 207.69 265.92 208.11
  C 263.58 208.37 260.99 209.02 258.74 208.20
  Q 257.04 207.59 255.18 207.63
  A 2.49 2.48 79.7 0 1 252.80 205.98
  L 250.91 200.71
  A 1.27 1.27 0.0 0 0 249.17 199.99
  L 246.25 201.38
  Q 245.77 201.61 245.25 201.44
  L 242.15 200.39
  Q 241.60 200.21 241.44 199.65
  C 239.39 192.21 245.35 193.34 250.00 193.22
  Q 250.58 193.20 250.94 192.75
  Q 251.48 192.07 251.60 191.16
  Q 251.80 189.64 253.27 190.09
  L 255.69 190.84
  Q 256.25 191.01 256.75 190.73
  Q 257.79 190.16 258.63 190.82
  Q 259.07 191.17 258.94 191.72
  Q 258.74 192.51 258.82 193.31
  Q 258.90 194.23 259.70 193.76
  Z"
/>
<path fill="#c3191b" d="
  M 179.15 207.68
  C 181.47 201.95 182.61 199.01 182.51 193.84
  A 2.63 2.61 72.0 0 1 183.62 191.64
  L 183.99 191.39
  Q 184.97 190.70 185.23 191.87
  C 186.44 197.39 186.08 203.52 185.77 209.51
  C 185.63 212.16 184.07 213.68 181.73 214.71
  Q 177.85 216.42 173.93 218.93
  Q 173.70 219.07 173.46 218.95
  A 0.35 0.35 0.0 0 1 173.33 218.44
  Q 177.07 212.81 179.15 207.68
  Z"
/>
<path fill="#c3191b" d="
  M 399.22 194.46
  A 0.55 0.55 0.0 0 0 400.01 195.07
  L 402.24 193.94
  Q 402.72 193.70 403.04 194.13
  Q 405.58 197.57 409.95 194.72
  A 0.59 0.59 0.0 0 1 410.85 195.34
  Q 410.33 197.80 409.21 199.62
  Q 408.86 200.18 408.21 200.24
  Q 405.08 200.54 402.92 198.75
  Q 402.45 198.36 402.03 198.80
  Q 399.39 201.51 395.29 199.94
  Q 394.85 199.78 394.82 199.31
  Q 394.56 195.76 396.57 193.05
  A 1.32 1.32 0.0 0 1 398.38 192.75
  Q 399.44 193.47 399.22 194.46
  Z"
/>
<path fill="#c3191b" d="
  M 340.49 208.60
  Q 341.33 209.58 341.13 210.54
  Q 340.87 211.81 340.01 210.83
  C 337.57 208.03 335.07 206.21 335.65 201.96
  A 1.84 1.84 0.0 0 0 333.88 199.87
  Q 332.39 199.83 330.88 200.56
  Q 329.98 201.00 329.54 200.18
  Q 329.07 199.29 329.25 198.00
  A 0.52 0.52 0.0 0 1 329.95 197.59
  Q 333.43 198.97 336.71 197.14
  A 2.68 2.67 -40.3 0 1 339.70 197.38
  Q 341.67 198.95 344.09 198.23
  Q 345.10 197.92 344.70 198.91
  Q 344.41 199.64 343.58 199.90
  A 0.93 0.92 -24.6 0 0 343.07 201.26
  Q 343.51 202.01 344.22 202.62
  A 1.57 1.56 -32.1 0 1 343.60 205.31
  L 341.31 205.94
  A 1.65 1.65 0.0 0 0 340.49 208.60
  Z"
/>
<path fill="#c3191b" d="
  M 325.87 219.38
  Q 325.93 217.89 326.67 216.66
  C 328.63 213.38 327.55 210.62 327.26 207.12
  Q 327.19 206.32 327.86 206.77
  C 329.36 207.79 331.23 208.39 331.98 210.18
  Q 333.25 213.22 335.14 215.75
  Q 335.64 216.42 334.83 216.63
  L 333.78 216.90
  A 1.55 1.54 -87.0 0 0 332.71 217.87
  Q 331.12 222.21 325.47 224.56
  Q 323.49 225.37 324.59 223.54
  Q 325.79 221.53 325.87 219.38
  Z"
/>
<path fill="#ffed00" d="
  M 261.62 217.40
  Q 258.17 216.38 255.18 216.19
  Q 253.40 216.07 253.20 217.84
  Q 252.68 222.40 251.13 224.91
  Q 248.73 228.79 243.43 232.46
  A 2.38 2.37 51.7 0 1 240.31 232.09
  L 237.62 229.11
  Q 236.33 227.68 237.97 226.69
  C 241.05 224.81 244.21 222.69 244.67 218.74
  Q 245.14 214.81 245.13 210.67
  A 1.47 1.46 -84.5 0 1 246.87 209.23
  Q 250.46 209.91 253.85 209.47
  Q 255.91 209.19 257.93 209.83
  Q 262.81 211.38 269.07 210.07
  A 1.64 1.63 -4.7 0 1 271.04 211.74
  L 270.57 223.36
  A 1.40 1.39 -2.0 0 0 272.12 224.80
  L 276.18 224.35
  A 1.76 1.75 4.7 0 0 277.68 223.08
  L 278.99 218.44
  Q 279.41 216.98 280.84 217.48
  L 286.44 219.42
  A 0.81 0.81 0.0 0 1 286.98 220.27
  Q 286.33 226.36 284.11 229.36
  Q 282.98 230.88 280.54 231.24
  Q 276.24 231.89 272.02 232.59
  C 269.52 233.01 266.96 231.64 264.58 230.93
  A 1.28 1.27 1.4 0 1 263.72 230.04
  Q 262.23 224.21 262.54 218.71
  Q 262.60 217.69 261.62 217.40
  Z"
/>
<path fill="#c3191b" d="
  M 407.34 223.78
  C 405.41 222.87 402.87 222.02 400.80 222.76
  Q 398.59 223.55 396.24 222.16
  Q 395.80 221.90 395.64 221.41
  Q 395.08 219.75 395.11 218.18
  A 1.63 1.62 -88.9 0 1 396.76 216.58
  Q 402.54 216.67 408.68 216.73
  C 409.60 216.74 410.70 216.27 411.53 216.49
  A 0.57 0.56 11.9 0 1 411.95 217.12
  Q 411.55 219.78 411.10 222.07
  Q 410.46 225.24 407.34 223.78
  Z"
/>
<path fill="#ffed00" d="
  M 166.02 280.11
  Q 170.78 286.66 175.56 293.01
  Q 176.06 293.67 176.40 294.46
  Q 176.69 295.16 175.93 295.14
  L 167.32 294.98
  A 1.54 1.53 -16.0 0 1 166.08 294.30
  Q 162.37 288.73 158.60 282.28
  C 157.16 279.82 155.30 279.72 152.79 279.89
  Q 152.12 279.94 152.16 280.61
  Q 152.58 286.33 151.82 291.61
  A 0.79 0.78 -74.9 0 1 150.75 292.23
  L 148.84 291.45
  Q 148.34 291.24 147.83 291.45
  L 144.53 292.80
  A 0.55 0.54 -12.2 0 1 143.78 292.32
  Q 143.36 281.44 143.97 271.49
  Q 144.49 263.00 144.20 255.51
  Q 144.14 254.14 145.52 254.17
  Q 153.18 254.37 159.94 254.45
  C 163.65 254.50 169.49 256.45 170.99 260.39
  C 171.96 262.95 172.84 265.80 171.92 268.48
  Q 171.09 270.89 171.75 273.61
  Q 171.91 274.25 171.54 274.79
  Q 169.58 277.63 166.29 279.11
  A 0.67 0.67 0.0 0 0 166.02 280.11
  Z
  M 152.93 261.80
  L 153.05 273.02
  A 0.41 0.41 0.0 0 0 153.46 273.42
  L 158.70 273.37
  A 5.45 5.12 -0.6 0 0 164.10 268.19
  L 164.08 266.39
  A 5.45 5.12 -0.6 0 0 158.58 261.33
  L 153.34 261.38
  A 0.41 0.41 0.0 0 0 152.93 261.80
  Z"
/>
<path fill="#ffed00" d="
  M 179.50 266.08
  Q 178.37 265.27 178.65 263.98
  Q 179.60 259.56 180.86 254.80
  Q 180.89 254.68 181.02 254.67
  Q 185.03 254.43 189.09 255.09
  Q 189.23 255.12 189.22 255.27
  Q 188.70 260.20 189.03 263.50
  C 189.38 267.02 188.78 270.48 189.20 273.99
  C 189.54 276.92 188.65 279.94 188.57 282.96
  C 188.41 289.30 196.83 288.60 200.90 287.84
  Q 205.09 287.05 205.17 282.72
  Q 205.25 278.29 205.31 273.56
  C 205.33 271.55 203.86 270.63 203.77 268.77
  Q 203.63 265.74 203.72 262.77
  A 1.34 1.32 73.3 0 1 204.27 261.73
  Q 207.63 259.34 205.47 255.86
  A 0.58 0.58 0.0 0 1 205.96 254.97
  L 215.00 254.98
  A 0.58 0.57 1.9 0 1 215.57 255.58
  Q 215.41 258.64 216.00 261.21
  C 217.15 266.27 215.83 271.10 216.39 276.26
  Q 216.70 279.10 216.20 282.47
  Q 214.50 293.74 203.64 295.54
  C 197.63 296.54 188.00 296.11 182.86 292.30
  Q 181.74 291.47 181.39 290.09
  C 181.03 288.70 180.32 287.39 180.33 285.95
  Q 180.37 282.00 179.79 277.82
  Q 179.55 276.00 180.00 274.24
  C 180.46 272.42 181.47 267.49 179.50 266.08
  Z"
/>
<path fill="#ffed00" d="
  M 235.60 267.45
  Q 239.34 266.98 242.56 269.08
  Q 248.55 272.98 254.13 274.18
  A 1.00 0.99 84.7 0 1 254.84 274.78
  L 256.27 278.33
  A 1.56 1.55 57.0 0 1 255.92 280.01
  L 253.81 282.09
  Q 253.28 282.61 253.28 283.35
  L 253.31 288.97
  A 1.26 1.24 -25.5 0 1 253.02 289.77
  Q 250.23 293.18 245.98 294.00
  C 241.43 294.87 236.68 295.13 231.97 295.47
  Q 227.83 295.77 223.54 294.26
  A 0.62 0.62 0.0 0 1 223.19 293.42
  Q 224.20 291.25 223.71 288.91
  A 1.91 1.91 0.0 0 1 225.15 286.66
  Q 228.03 285.99 230.79 286.31
  C 234.53 286.74 238.30 286.46 242.05 286.75
  A 2.69 2.67 20.6 0 0 244.39 285.70
  L 247.09 282.14
  A 2.28 2.27 23.6 0 0 245.67 278.53
  C 244.12 278.25 242.67 278.17 241.15 277.67
  Q 235.96 275.97 231.05 274.57
  Q 228.08 273.72 226.38 270.56
  A 1.63 1.61 37.7 0 1 226.23 269.45
  Q 226.86 266.73 226.07 264.03
  Q 225.92 263.52 226.12 263.02
  Q 226.82 261.25 226.02 259.70
  Q 225.78 259.24 226.05 258.80
  C 229.19 253.59 240.35 254.46 245.19 255.32
  C 249.38 256.07 248.89 258.40 250.64 261.35
  A 0.74 0.73 -8.0 0 1 249.82 262.43
  Q 247.28 261.79 244.79 261.20
  Q 241.56 260.43 237.48 261.60
  Q 236.71 261.82 236.65 262.61
  Q 236.48 264.82 235.23 266.88
  A 0.38 0.38 0.0 0 0 235.60 267.45
  Z"
/>
<path fill="#ffed00" d="
  M 270.55 277.76
  A 0.45 0.45 0.0 0 0 270.60 278.57
  Q 274.35 280.06 273.40 283.86
  Q 272.61 287.00 270.84 289.63
  C 270.10 290.72 270.08 292.08 270.70 293.24
  A 0.91 0.91 0.0 0 1 269.86 294.58
  L 264.61 294.38
  A 0.85 0.84 -71.0 0 1 263.96 293.04
  Q 264.63 292.12 264.73 290.98
  Q 264.77 290.48 264.49 290.07
  Q 262.41 286.92 262.88 282.42
  Q 262.94 281.91 262.58 281.54
  L 261.85 280.79
  Q 261.32 280.24 261.60 279.54
  L 263.31 275.23
  Q 263.52 274.68 264.08 274.49
  C 266.49 273.62 266.08 271.06 266.46 269.07
  Q 266.62 268.27 265.81 268.23
  L 263.40 268.10
  A 2.77 2.76 -0.8 0 1 260.79 265.57
  Q 260.69 264.28 260.78 262.98
  C 261.01 259.98 257.41 259.33 257.93 256.19
  Q 258.03 255.63 258.59 255.62
  L 266.45 255.57
  A 0.76 0.76 0.0 0 1 267.21 256.39
  C 266.76 261.41 268.90 264.86 270.92 269.15
  A 1.86 1.85 -7.0 0 0 272.24 270.17
  Q 277.25 271.12 282.16 271.03
  A 0.56 0.56 0.0 0 0 282.71 270.47
  L 282.72 256.53
  Q 282.72 255.78 283.47 255.79
  L 291.07 255.99
  A 0.81 0.80 -88.6 0 1 291.85 256.82
  L 291.01 295.93
  Q 291.00 296.60 290.32 296.60
  L 282.99 296.52
  Q 282.21 296.51 282.23 295.73
  L 282.61 278.72
  A 0.35 0.35 0.0 0 0 282.27 278.36
  Q 277.31 278.25 272.00 277.51
  Q 271.22 277.40 270.55 277.76
  Z"
/>
<path fill="#ffed00" d="
  M 325.22 282.75
  Q 323.78 282.94 323.66 282.96
  A 1.50 1.42 -6.7 0 0 322.36 284.52
  C 322.49 285.75 322.86 286.99 322.71 288.21
  Q 322.18 292.56 322.28 296.51
  A 1.24 1.24 0.0 0 1 321.02 297.79
  L 313.74 297.72
  Q 312.67 297.71 312.58 296.65
  C 312.44 295.07 312.82 292.93 311.70 291.71
  A 2.00 2.00 0.0 0 1 311.78 288.92
  L 313.58 287.17
  A 0.84 0.84 0.0 0 0 313.08 285.73
  Q 311.84 285.61 311.88 284.46
  Q 311.91 283.67 312.42 283.03
  Q 315.36 279.39 315.41 275.36
  Q 315.54 265.47 315.53 256.88
  A 0.72 0.72 0.0 0 1 316.40 256.18
  C 325.59 258.22 340.58 252.48 344.27 265.01
  C 346.11 271.28 344.53 279.40 337.45 281.36
  A 0.91 0.91 0.0 0 0 336.90 282.67
  C 337.82 284.33 339.87 288.48 337.94 290.09
  A 0.68 0.68 0.0 0 0 338.08 291.23
  Q 342.56 293.40 346.46 296.21
  Q 348.66 297.79 345.94 297.86
  Q 341.51 297.97 337.21 298.70
  C 334.96 299.08 333.85 297.50 332.72 295.92
  Q 330.15 292.32 330.23 289.27
  Q 330.25 288.47 329.48 288.30
  C 327.43 287.82 324.78 286.47 326.02 283.87
  Q 326.64 282.57 325.22 282.75
  Z
  M 324.40 264.12
  L 324.24 274.82
  A 0.59 0.59 0.0 0 0 324.82 275.42
  L 330.34 275.50
  A 5.43 4.93 0.9 0 0 335.84 270.66
  L 335.88 268.64
  A 5.43 4.93 0.9 0 0 330.52 263.63
  L 325.00 263.54
  A 0.59 0.59 0.0 0 0 324.40 264.12
  Z"
/>
<path fill="#ffed00" d="
  M 380.18 281.01
  Q 380.45 287.62 384.52 289.44
  C 389.28 291.56 395.88 290.52 400.94 289.69
  A 0.42 0.42 0.0 0 1 401.39 290.27
  Q 400.02 293.35 400.64 296.59
  Q 400.77 297.30 400.06 297.42
  C 387.58 299.49 372.06 299.33 370.32 283.49
  C 369.02 271.76 371.20 259.23 385.08 257.27
  Q 392.54 256.21 399.92 257.54
  A 2.12 2.11 -85.1 0 1 401.66 259.61
  Q 401.67 262.19 403.37 264.19
  Q 404.82 265.90 402.60 265.60
  C 397.94 264.98 394.17 264.35 389.24 264.96
  C 380.37 266.04 379.89 273.87 380.18 281.01
  Z"
/>
<path fill="#ffed00" d="
  M 357.70 300.75
  Q 356.09 299.63 355.18 301.24
  Q 355.01 301.53 354.69 301.61
  Q 353.95 301.81 353.44 301.35
  Q 352.84 300.81 352.83 299.98
  Q 352.67 289.90 353.32 281.57
  Q 353.48 279.52 354.36 277.66
  A 2.19 2.18 -37.5 0 0 354.53 276.39
  C 353.68 271.52 352.19 266.22 355.50 262.04
  Q 356.47 260.82 356.06 259.18
  Q 355.58 257.30 357.53 257.22
  L 360.74 257.08
  Q 362.34 257.02 362.30 258.61
  Q 362.16 265.93 363.05 273.63
  C 363.53 277.71 361.99 281.76 362.11 285.14
  Q 362.32 290.94 362.69 297.00
  Q 362.72 297.57 362.42 298.06
  C 361.79 299.04 361.16 299.66 361.05 300.92
  Q 360.92 302.44 359.63 303.37
  Q 357.08 305.22 358.14 302.25
  Q 358.48 301.29 357.70 300.75
  Z"
/>
<path fill="#ffed00" d="
  M 417.21 267.82
  Q 416.15 271.48 417.61 275.17
  Q 417.79 275.62 418.25 275.78
  Q 424.80 278.08 430.35 275.51
  Q 431.13 275.15 431.04 276.00
  L 430.38 281.99
  A 1.65 1.65 0.0 0 1 428.82 283.46
  C 426.06 283.59 423.16 283.14 420.63 284.30
  Q 419.26 284.93 417.99 284.35
  A 0.64 0.64 0.0 0 0 417.10 285.00
  Q 417.44 288.13 416.64 291.70
  A 0.91 0.91 0.0 0 0 417.53 292.81
  C 418.94 292.81 420.53 292.82 421.90 293.35
  C 425.56 294.77 427.39 292.02 430.87 292.01
  Q 431.40 292.01 431.41 292.54
  Q 431.50 296.74 430.41 299.85
  A 1.55 1.54 15.1 0 1 428.66 300.85
  Q 419.29 299.06 409.56 298.29
  Q 408.71 298.22 407.97 297.78
  A 0.61 0.61 0.0 0 1 407.83 296.84
  L 410.22 294.25
  A 1.06 1.05 -47.9 0 0 410.15 292.75
  Q 407.75 290.56 410.31 287.73
  A 0.65 0.65 0.0 0 0 409.83 286.64
  C 408.96 286.63 408.32 285.81 408.31 284.99
  C 408.26 282.74 407.59 280.69 407.83 278.42
  Q 408.18 275.08 407.54 271.73
  C 407.19 269.88 408.02 267.71 409.89 266.96
  C 410.73 266.62 410.97 265.73 410.77 264.91
  Q 409.99 261.67 408.87 258.72
  A 0.70 0.69 79.8 0 1 409.52 257.78
  L 430.61 257.75
  Q 431.97 257.75 431.95 259.11
  L 431.84 265.64
  Q 431.82 266.85 430.63 267.06
  Q 428.93 267.37 427.33 268.26
  A 3.28 3.27 45.1 0 1 424.13 268.25
  Q 421.46 266.74 417.76 267.33
  Q 417.33 267.40 417.21 267.82
  Z"
/>
<path fill="#c3191b" d="
  M 152.93 261.80
  A 0.41 0.41 0.0 0 1 153.34 261.38
  L 158.58 261.33
  A 5.45 5.12 -0.6 0 1 164.08 266.39
  L 164.10 268.19
  A 5.45 5.12 -0.6 0 1 158.70 273.37
  L 153.46 273.42
  A 0.41 0.41 0.0 0 1 153.05 273.02
  L 152.93 261.80
  Z"
/>
<path fill="#c3191b" d="
  M 324.40 264.12
  A 0.59 0.59 0.0 0 1 325.00 263.54
  L 330.52 263.63
  A 5.43 4.93 0.9 0 1 335.88 268.64
  L 335.84 270.66
  A 5.43 4.93 0.9 0 1 330.34 275.50
  L 324.82 275.42
  A 0.59 0.59 0.0 0 1 324.24 274.82
  L 324.40 264.12
  Z"
/>
</svg>
