<svg
  xmlns="http://www.w3.org/2000/svg"
  aria-labelledby="Hamburger321250"
  role="img"
  viewBox="0 0 24 24"
  color="currentColor"
  fill="currentColor"
  width="20px"
  height="20px"
>
  <title id="Hamburger321250">Hamburger</title>
  <path
    fill="#191919"
    d="M21.882 4a1.618 1.618 0 0 1 .095 3.233l-.095.003H1.618a1.618 1.618 0 0 1-.095-3.233L1.618 4h20.264ZM21.882 11a1.618 1.618 0 0 1 .095 3.233l-.095.003H1.618a1.618 1.618 0 0 1-.095-3.233L1.618 11h20.264ZM21.882 18a1.618 1.618 0 0 1 .095 3.233l-.095.003H1.618a1.618 1.618 0 0 1-.095-3.233L1.618 18h20.264Z"
  ></path>
</svg>